<?xml version="1.0" encoding="UTF-8" standalone="no"?>
<svg width="49px" height="16px" viewBox="0 0 49 16" version="1.1" xmlns="http://www.w3.org/2000/svg" xmlns:xlink="http://www.w3.org/1999/xlink">
    <!-- Generator: Sketch 48.2 (47327) - http://www.bohemiancoding.com/sketch -->
    <title>Card / Visa</title>
    <desc>Created with Sketch.</desc>
    <defs></defs>
    <g id="S6-Footer-/-1-/-Dark" stroke="none" stroke-width="1" fill="none" fill-rule="evenodd" transform="translate(-1177.000000, -137.000000)">
        <g id="Columns" transform="translate(100.000000, 98.000000)">
            <g id="Col-Payment" transform="translate(620.000000, 0.000000)">
                <g id="Accepted-Cards" transform="translate(457.000000, 0.000000)">
                    <g id="List" transform="translate(0.000000, 35.000000)">
                        <g id="Card-/-Visa" transform="translate(0.000000, 4.000000)">
                            <polyline id="Fill-4" fill="#FFFFFF" points="21.0964342 15.42528 17.1467763 15.42528 19.6154737 0.36352 23.5664211 0.36352 21.0964342 15.42528"></polyline>
                            <path d="M13.8225132,0.36352 L10.0566053,10.7232 L9.61044737,8.49216 L9.61044737,8.4928 L8.28164474,1.71968 C8.28164474,1.71968 8.12175,0.36352 6.40803947,0.36352 L0.181815789,0.36352 L0.108960526,0.61888 C0.108960526,0.61888 2.01286842,1.0112 4.24172368,2.33984 L7.67365789,15.42528 L11.7896579,15.42528 L18.0745526,0.36352 L13.8225132,0.36352" id="Fill-5" fill="#FFFFFF"></path>
                            <path d="M40.5494342,10.09792 L42.6241974,4.46016 L43.7924605,10.09792 L40.5494342,10.09792 Z M44.89625,15.42528 L48.5235395,15.42528 L45.3604605,0.36352 L42.1851316,0.36352 C40.7183553,0.36352 40.3611711,1.48544 40.3611711,1.48544 L34.4695658,15.42528 L38.5868553,15.42528 L39.4108289,13.18848 L44.4326842,13.18848 L44.89625,15.42528 Z" id="Fill-6" fill="#FFFFFF"></path>
                            <path d="M34.7783947,3.98528 L35.3418947,0.75072 C35.3418947,0.75072 33.60175,0.09408 31.7893947,0.09408 C29.8281053,0.09408 25.1731053,0.94464 25.1731053,5.08032 C25.1731053,8.97216 30.63725,9.02016 30.63725,11.06304 C30.63725,13.10656 25.7359605,12.74176 24.1183158,11.4528 L23.5309605,14.83328 C23.5309605,14.83328 25.2943158,15.68512 27.9906053,15.68512 C30.6856053,15.68512 34.7538947,14.29888 34.7538947,10.52864 C34.7538947,6.61248 29.24075,6.24704 29.24075,4.54464 C29.24075,2.8416 33.0878947,3.06048 34.7783947,3.98528" id="Fill-7" fill="#FFFFFF"></path>
                            <path d="M9.61044737,8.4928 L8.28164474,1.71968 C8.28164474,1.71968 8.12175,0.36352 6.40803947,0.36352 L0.181815789,0.36352 L0.108960526,0.61888 C0.108960526,0.61888 3.10247368,1.23392 5.97219737,3.53984 C8.71684211,5.74528 9.61044737,8.4928 9.61044737,8.4928" id="Fill-8" fill="#F9A533"></path>
                        </g>
                    </g>
                </g>
            </g>
        </g>
    </g>
</svg>