<?xml version="1.0" encoding="UTF-8" standalone="no"?>
<svg width="37px" height="23px" viewBox="0 0 37 23" version="1.1" xmlns="http://www.w3.org/2000/svg" xmlns:xlink="http://www.w3.org/1999/xlink">
    <!-- Generator: Sketch 48.2 (47327) - http://www.bohemiancoding.com/sketch -->
    <title>Card / Mastercard</title>
    <desc>Created with Sketch.</desc>
    <defs></defs>
    <g id="S6-Footer-/-1-/-Dark" stroke="none" stroke-width="1" fill="none" fill-rule="evenodd" transform="translate(-1246.000000, -133.000000)">
        <g id="Columns" transform="translate(100.000000, 98.000000)">
            <g id="Col-Payment" transform="translate(620.000000, 0.000000)">
                <g id="Accepted-Cards" transform="translate(457.000000, 0.000000)">
                    <g id="List" transform="translate(0.000000, 35.000000)">
                        <g id="Card-/-Mastercard" transform="translate(69.000000, 0.000000)">
                            <polyline id="Fill-189" fill="#FBB231" points="25.8381711 22.915 26.4029079 22.9 26.9613158 22.8585 27.5085263 22.7865 28.0513553 22.6875 28.5795789 22.5625 29.1009868 22.4105 29.6107105 22.232 30.1102105 22.031 30.5975395 21.8035 31.07075 21.5565 31.5288684 21.283 31.9762763 20.991 32.4051842 20.6765 32.8185132 20.342 33.2177237 19.989 33.5984342 19.6135 33.9640526 19.2225 34.3077632 18.812 34.6334605 18.3875 34.9401711 17.947 35.2249737 17.488 35.4898158 17.0165 35.7303158 16.531 35.9523158 16.0305 36.1480263 15.5175 36.3213421 14.994 36.4703158 14.4595 36.5915395 13.9165 36.6874474 13.3585 36.7575526 12.7965 36.7989342 12.2235 36.8130526 11.643 36.7989342 11.066 36.7575526 10.4965 36.6874474 9.935 36.5915395 9.3845 36.4703158 8.842 36.3213421 8.3105 36.1480263 7.787 35.9523158 7.278 35.7303158 6.7815 35.4898158 6.295 35.2249737 5.8285 34.9401711 5.3695 34.6334605 4.929 34.3077632 4.5075 33.9640526 4.0985 33.5984342 3.707 33.2177237 3.335 32.8185132 2.982 32.4051842 2.648 31.9762763 2.333 31.5288684 2.0405 31.07075 1.7715 30.5975395 1.525 30.1102105 1.2965 29.6107105 1.0955 29.1009868 0.9175 28.5795789 0.7655 28.0513553 0.64 27.5085263 0.542 26.9613158 0.4695 26.4029079 0.4275 25.8381711 0.412 25.2753816 0.4275 24.7174605 0.4695 24.1712237 0.542 23.6313158 0.64 23.1030921 0.7655 22.5826579 0.9175 22.0758553 1.0955 21.5763553 1.2965 21.0924342 1.525 20.6231184 1.7715 20.165 2.0405 19.7219737 2.333 19.2935526 2.648 18.87925 2.982 18.4839342 3.335 18.1027368 3.707 17.7410132 4.0985 17.3968158 4.5075 17.0720921 4.929 16.7692763 5.3695 16.4844737 5.8285 16.2220658 6.295 15.9781579 6.7815 15.7600526 7.278 15.5638553 7.787 15.3944342 8.3105 15.2459474 8.842 15.1242368 9.3845 15.0283289 9.935 14.9587105 10.4965 14.9173289 11.066 14.9022368 11.643 14.9173289 12.2235 14.9587105 12.7965 15.0283289 13.3585 15.1242368 13.9165 15.2459474 14.4595 15.3944342 14.994 15.5638553 15.5175 15.7600526 16.0305 15.9781579 16.531 16.2220658 17.0165 16.4844737 17.488 16.7692763 17.947 17.0720921 18.3875 17.3968158 18.812 17.7410132 19.2225 18.1027368 19.6135 18.4839342 19.989 18.87925 20.342 19.2935526 20.6765 19.7219737 20.991 20.165 21.283 20.6231184 21.5565 21.0924342 21.8035 21.5763553 22.031 22.0758553 22.232 22.5826579 22.4105 23.1030921 22.5625 23.6313158 22.6875 24.1712237 22.7865 24.7174605 22.8585 25.2753816 22.9 25.8381711 22.915"></polyline>
                            <polyline id="Fill-190" fill="#EC1C2E" points="11.1817895 22.915 11.7426316 22.9 12.3010395 22.8585 12.84825 22.7865 13.3876711 22.6875 13.9158947 22.5625 14.4368158 22.4105 14.9436184 22.232 15.4421447 22.031 15.9260658 21.8035 16.3958684 21.5565 16.8539868 21.283 17.2970132 20.991 17.7264079 20.6765 18.1402237 20.342 18.5350526 19.989 18.9157632 19.6135 19.2784605 19.2225 19.6221711 18.812 19.9468947 18.3875 20.2497105 17.947 20.535 17.488 20.7974079 17.0165 21.0408289 16.531 21.2589342 16.0305 21.4551316 15.5175 21.6245526 14.994 21.7725526 14.4595 21.89475 13.9165 21.9906579 13.3585 22.0607632 12.7965 22.1011711 12.2235 22.1162632 11.643 22.1011711 11.066 22.0607632 10.4965 21.9906579 9.935 21.89475 9.3845 21.7725526 8.842 21.6245526 8.3105 21.4551316 7.787 21.2589342 7.278 21.0408289 6.7815 20.7974079 6.295 20.535 5.8285 20.2497105 5.3695 19.9468947 4.929 19.6221711 4.5075 19.2784605 4.0985 18.9157632 3.707 18.5350526 3.335 18.1402237 2.982 17.7264079 2.648 17.2970132 2.333 16.8539868 2.0405 16.3958684 1.7715 15.9260658 1.525 15.4421447 1.2965 14.9436184 1.0955 14.4368158 0.9175 13.9158947 0.7655 13.3876711 0.64 12.84825 0.542 12.3010395 0.4695 11.7426316 0.4275 11.1817895 0.412 10.6155921 0.4275 10.0581579 0.4695 9.51094737 0.542 8.96714474 0.64 8.43892105 0.7655 7.918 0.9175 7.40778947 1.0955 6.90926316 1.2965 6.42144737 1.525 5.94823684 1.7715 5.49011842 2.0405 5.04271053 2.333 4.61428947 2.648 4.20047368 2.982 3.80126316 3.335 3.42103947 3.707 3.05493421 4.0985 2.71122368 4.5075 2.38601316 4.929 2.07930263 5.3695 1.79498684 5.8285 1.52868421 6.295 1.28867105 6.7815 1.06667105 7.278 0.870960526 7.787 0.697644737 8.3105 0.549644737 8.842 0.427447368 9.3845 0.331539474 9.935 0.260947368 10.4965 0.220539474 11.066 0.205447368 11.643 0.220539474 12.2235 0.260947368 12.7965 0.331539474 13.3585 0.427447368 13.9165 0.549644737 14.4595 0.697644737 14.994 0.870960526 15.5175 1.06667105 16.0305 1.28867105 16.531 1.52868421 17.0165 1.79498684 17.488 2.07930263 17.947 2.38601316 18.3875 2.71122368 18.812 3.05493421 19.2225 3.42103947 19.6135 3.80126316 19.989 4.20047368 20.342 4.61428947 20.6765 5.04271053 20.991 5.49011842 21.283 5.94823684 21.5565 6.42144737 21.8035 6.90926316 22.031 7.40778947 22.232 7.918 22.4105 8.43892105 22.5625 8.96714474 22.6875 9.51094737 22.7865 10.0581579 22.8585 10.6155921 22.9 11.1817895 22.915"></polyline>
                            <polyline id="Fill-191" fill="#FBB231" points="17.2273947 4.728 23.0475921 4.728 23.0475921 4.1165 17.7298158 4.1165 17.2273947 4.728"></polyline>
                            <polyline id="Fill-192" fill="#FBB231" points="16.3549737 6.0865 23.0475921 6.0865 23.0475921 5.475 16.7059868 5.475 16.3549737 6.0865"></polyline>
                            <polyline id="Fill-193" fill="#FBB231" points="15.7050395 7.4415 23.0475921 7.4415 23.0475921 6.83 15.9635526 6.83 15.7050395 7.4415"></polyline>
                            <polyline id="Fill-194" fill="#FBB231" points="15.2576316 8.8 23.0475921 8.8 23.0475921 8.1895 15.4421447 8.1895 15.2576316 8.8"></polyline>
                            <polyline id="Fill-195" fill="#FBB231" points="15.5166316 15.3665 23.0660921 15.3665 23.0660921 14.755 15.3311447 14.755 15.5166316 15.3665"></polyline>
                            <polyline id="Fill-196" fill="#FBB231" points="16.0740658 16.725 23.0660921 16.725 23.0660921 16.114 15.7970526 16.114 16.0740658 16.725"></polyline>
                            <polyline id="Fill-197" fill="#FBB231" points="16.8569079 18.08 23.0660921 18.08 23.0660921 17.469 16.4844737 17.469 16.8569079 18.08"></polyline>
                            <polyline id="Fill-198" fill="#FBB231" points="17.9367237 19.4385 23.0660921 19.4385 23.0660921 18.8235 17.4158026 18.8235 17.9367237 19.4385"></polyline>
                            <polyline id="Fill-199" fill="#FBB231" points="14.9952237 10.155 23.0475921 10.155 23.0475921 9.544 15.1096316 9.544 14.9952237 10.155"></polyline>
                            <polyline id="Fill-200" fill="#FBB231" points="19.9025921 14.0115 22.9735921 14.0115 22.9735921 13.4 20.0135921 13.4 19.9025921 14.0115"></polyline>
                            <polyline id="Fill-201" fill="#FBB231" points="20.1469868 12.656 22.9735921 12.656 22.9735921 12.0415 20.2575 12.0415 20.1469868 12.656"></polyline>
                            <polyline id="Fill-202" fill="#FBB231" points="14.7917237 12.0415 15.5906316 12.0415 15.5906316 12.656 14.8292105 12.656 14.7917237 12.0415"></polyline>
                            <polyline id="Fill-203" fill="#FFFFFF" points="13.3019868 11.301 13.2508684 11.297 13.1992632 11.29 13.1510658 11.2825 13.1033553 11.275 13.0585658 11.2675 13.0108553 11.2595 12.9631447 11.2525 12.9105658 11.244 12.8594474 11.237 12.8000526 11.233 12.7333553 11.229 12.6637368 11.225 12.5858421 11.225 12.5006447 11.229 12.40425 11.237 12.2976316 11.244 12.2236316 11.256 12.1535263 11.2675 12.0902368 11.29 12.0352237 11.3125 11.9831316 11.339 11.9359079 11.3695 11.8979342 11.408 11.8643421 11.442 11.8429211 11.4835 11.8244211 11.5255 11.8166316 11.5705 11.8166316 11.6165 11.8278289 11.666 11.8429211 11.715 11.8721316 11.7645 11.9091316 11.814 11.9831316 11.8855 12.0722237 11.9425 12.1754342 11.992 12.2864342 12.0335 12.40425 12.072 12.5259605 12.1135 12.6481579 12.1595 12.7664605 12.2085 12.8774605 12.273 12.9811579 12.3525 13.0731711 12.448 13.1510658 12.5655 13.2099737 12.7095 13.2474605 12.88 13.2615789 13.0855 13.2474605 13.3245 13.2216579 13.503 13.1768684 13.6585 13.1174737 13.8025 13.0439605 13.9275 12.95925 14.038 12.8623684 14.1325 12.7591579 14.216 12.6452368 14.2885 12.5259605 14.3455 12.40425 14.3945 12.2786447 14.4325 12.1496316 14.463 12.0235395 14.486 11.9023158 14.497 11.7806053 14.505 11.6657105 14.508 11.5060263 14.508 11.3585132 14.505 11.2290132 14.505 11.1073026 14.5015 10.9963026 14.497 10.8969868 14.4895 10.8083816 14.482 10.7231842 14.4705 10.6452895 14.463 10.5756711 14.448 10.5050789 14.436 10.4422763 14.4175 10.3789868 14.402 10.3205658 14.379 10.2611711 14.357 10.1983684 14.334 10.3643816 13.495 10.3979737 13.503 10.4378947 13.5145 10.4899868 13.529 10.5532763 13.545 10.6194868 13.5595 10.6934868 13.575 10.7747895 13.5935 10.8629079 13.609 10.9558947 13.624 11.0522895 13.6395 11.1516053 13.6505 11.2553026 13.662 11.3619211 13.6655 11.4704868 13.6695 11.5761316 13.6695 11.6837237 13.6655 11.7913158 13.643 11.8765132 13.6125 11.9422368 13.571 11.9943289 13.518 12.0313289 13.4645 12.0610263 13.4035 12.0800132 13.3435 12.0941316 13.2865 12.1019211 13.176 12.0688158 13.081 12.0050395 13.005 11.9130263 12.941 11.8020263 12.884 11.6730132 12.827 11.5289079 12.7735 11.3848026 12.713 11.2368026 12.645 11.0965921 12.5655 10.9670921 12.4665 10.8487895 12.349 10.7562895 12.2045 10.6900789 12.0335 10.6564868 11.829 10.6598947 11.5865 10.6788816 11.438 10.7051711 11.297 10.7416842 11.1685 10.7855 11.047 10.8448947 10.9335 10.9115921 10.8345 10.9894868 10.7395 11.0819868 10.6565 11.1895789 10.5845 11.3073947 10.5235 11.4398158 10.4665 11.5878158 10.425 11.7548026 10.39 11.9359079 10.364 12.1345395 10.3485 12.3536184 10.3445 12.4894474 10.3445 12.6150526 10.3485 12.7299474 10.353 12.8331579 10.3565 12.9256579 10.364 13.0108553 10.3715 13.0843684 10.379 13.1510658 10.387 13.2138684 10.394 13.2659605 10.4055 13.3136711 10.4135 13.3584605 10.421 13.3954605 10.428 13.4285658 10.4325 13.4611842 10.44 13.4908816 10.444 13.3019868 11.301"></polyline>
                            <polyline id="Stroke-204" stroke="#FFFFFF" stroke-width="0.216" points="13.3019868 11.301 13.3019868 11.301 13.2508684 11.297 13.1992632 11.29 13.1510658 11.2825 13.1033553 11.275 13.0585658 11.2675 13.0108553 11.2595 12.9631447 11.2525 12.9105658 11.244 12.8594474 11.237 12.8000526 11.233 12.7333553 11.229 12.6637368 11.225 12.5858421 11.225 12.5006447 11.229 12.40425 11.237 12.2976316 11.244 12.2236316 11.256 12.1535263 11.2675 12.0902368 11.29 12.0352237 11.3125 11.9831316 11.339 11.9359079 11.3695 11.8979342 11.408 11.8643421 11.442 11.8429211 11.4835 11.8244211 11.5255 11.8166316 11.5705 11.8166316 11.6165 11.8278289 11.666 11.8429211 11.715 11.8721316 11.7645 11.9091316 11.814 11.9831316 11.8855 12.0722237 11.9425 12.1754342 11.992 12.2864342 12.0335 12.40425 12.072 12.5259605 12.1135 12.6481579 12.1595 12.7664605 12.2085 12.8774605 12.273 12.9811579 12.3525 13.0731711 12.448 13.1510658 12.5655 13.2099737 12.7095 13.2474605 12.88 13.2615789 13.0855 13.2474605 13.3245 13.2216579 13.503 13.1768684 13.6585 13.1174737 13.8025 13.0439605 13.9275 12.95925 14.038 12.8623684 14.1325 12.7591579 14.216 12.6452368 14.2885 12.5259605 14.3455 12.40425 14.3945 12.2786447 14.4325 12.1496316 14.463 12.0235395 14.486 11.9023158 14.497 11.7806053 14.505 11.6657105 14.508 11.5060263 14.508 11.3585132 14.505 11.2290132 14.505 11.1073026 14.5015 10.9963026 14.497 10.8969868 14.4895 10.8083816 14.482 10.7231842 14.4705 10.6452895 14.463 10.5756711 14.448 10.5050789 14.436 10.4422763 14.4175 10.3789868 14.402 10.3205658 14.379 10.2611711 14.357 10.1983684 14.334 10.3643816 13.495 10.3979737 13.503 10.4378947 13.5145 10.4899868 13.529 10.5532763 13.545 10.6194868 13.5595 10.6934868 13.575 10.7747895 13.5935 10.8629079 13.609 10.9558947 13.624 11.0522895 13.6395 11.1516053 13.6505 11.2553026 13.662 11.3619211 13.6655 11.4704868 13.6695 11.5761316 13.6695 11.6837237 13.6655 11.7913158 13.643 11.8765132 13.6125 11.9422368 13.571 11.9943289 13.518 12.0313289 13.4645 12.0610263 13.4035 12.0800132 13.3435 12.0941316 13.2865 12.1019211 13.176 12.0688158 13.081 12.0050395 13.005 11.9130263 12.941 11.8020263 12.884 11.6730132 12.827 11.5289079 12.7735 11.3848026 12.713 11.2368026 12.645 11.0965921 12.5655 10.9670921 12.4665 10.8487895 12.349 10.7562895 12.2045 10.6900789 12.0335 10.6564868 11.829 10.6598947 11.5865 10.6788816 11.438 10.7051711 11.297 10.7416842 11.1685 10.7855 11.047 10.8448947 10.9335 10.9115921 10.8345 10.9894868 10.7395 11.0819868 10.6565 11.1895789 10.5845 11.3073947 10.5235 11.4398158 10.4665 11.5878158 10.425 11.7548026 10.39 11.9359079 10.364 12.1345395 10.3485 12.3536184 10.3445 12.4894474 10.3445 12.6150526 10.3485 12.7299474 10.353 12.8331579 10.3565 12.9256579 10.364 13.0108553 10.3715 13.0843684 10.379 13.1510658 10.387 13.2138684 10.394 13.2659605 10.4055 13.3136711 10.4135 13.3584605 10.421 13.3954605 10.428 13.4285658 10.4325 13.4611842 10.44 13.4908816 10.444 13.3019868 11.301"></polyline>
                            <polyline id="Fill-205" fill="#FFFFFF" points="14.1783026 9.5065 15.2026184 9.5065 15.0507237 10.425 15.6680395 10.425 15.5346447 11.2825 14.8837368 11.2635 14.5298026 13.381 14.5259079 13.457 14.5439211 13.522 14.5814079 13.571 14.6296053 13.6125 14.6963026 13.6395 14.7698158 13.662 14.8506316 13.677 14.9397237 13.685 15.0210263 13.6815 15.0945395 13.6735 15.1617237 13.662 15.2206316 13.647 15.2688289 13.6315 15.3019342 13.6205 15.3243289 13.6125 15.3311447 13.609 15.2026184 14.315 15.1763289 14.334 15.1505263 14.349 15.1242368 14.364 15.0989211 14.379 15.0726316 14.3905 15.0429342 14.402 15.0103158 14.4135 14.9767237 14.425 14.9397237 14.436 14.9022368 14.444 14.8584211 14.4515 14.8146053 14.4595 14.7664079 14.467 14.7104211 14.4745 14.6510263 14.482 14.5882237 14.4895 14.3073158 14.4895 14.1593158 14.478 14.0303026 14.463 13.9124868 14.4405 13.8126842 14.4135 13.727 14.379 13.6573816 14.342 13.5945789 14.296 13.5463816 14.2465 13.5093816 14.1935 13.4830921 14.129 13.4650789 14.064 13.4538816 13.9925 13.4504737 13.9125 13.4504737 13.829 13.4728684 13.647 14.1783026 9.5065"></polyline>
                            <path d="M14.1783026,9.5065 L15.2026184,9.5065 L15.0507237,10.425 L15.6680395,10.425 L15.5346447,11.2825 L14.8837368,11.2635 L14.5298026,13.381 L14.5259079,13.457 L14.5439211,13.522 L14.5814079,13.571 L14.6296053,13.6125 L14.6963026,13.6395 L14.7698158,13.662 L14.8506316,13.677 L14.9397237,13.685 L15.0210263,13.6815 L15.0945395,13.6735 L15.1617237,13.662 L15.2206316,13.647 L15.2688289,13.6315 L15.3019342,13.6205 L15.3243289,13.6125 L15.3311447,13.609 L15.2026184,14.315 L15.1763289,14.334 L15.1505263,14.349 L15.1242368,14.364 L15.0989211,14.379 L15.0726316,14.3905 L15.0429342,14.402 L15.0103158,14.4135 L14.9767237,14.425 L14.9397237,14.436 L14.9022368,14.444 L14.8584211,14.4515 L14.8146053,14.4595 L14.7664079,14.467 L14.7104211,14.4745 L14.6510263,14.482 L14.5882237,14.4895 L14.3073158,14.4895 L14.1593158,14.478 L14.0303026,14.463 L13.9124868,14.4405 L13.8126842,14.4135 L13.727,14.379 L13.6573816,14.342 L13.5945789,14.296 L13.5463816,14.2465 L13.5093816,14.1935 L13.4830921,14.129 L13.4650789,14.064 L13.4538816,13.9925 L13.4504737,13.9125 L13.4504737,13.829 L13.4728684,13.647 L14.1783026,9.5065 M16.4844737,12.713 L16.4732763,12.7775 L16.4698684,12.8455 L16.4771711,12.918 L16.4917763,12.99 L16.5175789,13.0625 L16.5477632,13.1315 L16.5881711,13.203 L16.6319868,13.267 L16.6840789,13.332 L16.7390921,13.3895 L16.7984868,13.446 L16.8646974,13.491 L16.9318816,13.5335 L17.0053947,13.567 L17.0793947,13.5935 L17.1533947,13.609 L17.2493026,13.624 L17.3418026,13.6355 L17.4381974,13.647 L17.5341053,13.6545 L17.6300132,13.6585 L17.7298158,13.6585 L17.8257237,13.6545 L17.9255263,13.647 L18.0253289,13.6315 L18.1251316,13.6125 L18.2288289,13.59 L18.3281447,13.556 L18.4323289,13.5145 L18.5389474,13.468 L18.6426447,13.408 L18.74975,13.3435 L18.60175,14.277 L18.5423553,14.307 L18.4839342,14.338 L18.4245395,14.36 L18.3695263,14.3835 L18.3140263,14.402 L18.2541447,14.4215 L18.1952368,14.436 L18.1324342,14.448 L18.0657368,14.4595 L17.9922237,14.467 L17.9148158,14.4745 L17.8296184,14.482 L17.7332237,14.486 L17.6343947,14.486 L17.5190132,14.4895 L17.3968158,14.4895 L17.2161974,14.486 L17.0316842,14.467 L16.8466842,14.4405 L16.6616842,14.3945 L16.4810658,14.338 L16.30775,14.265 L16.1407632,14.171 L15.9854605,14.0605 L15.8413553,13.9315 L15.7162368,13.776 L15.6091316,13.601 L15.5195526,13.4 L15.4572368,13.176 L15.4168289,12.9215 L15.4056316,12.641 L15.4241316,12.33 L15.4387368,12.2085 L15.4606447,12.0675 L15.4903421,11.9205 L15.53075,11.76 L15.5867368,11.598 L15.6529474,11.434 L15.7376579,11.2675 L15.8413553,11.108 L15.9591711,10.956 L16.1032763,10.812 L16.2663684,10.683 L16.4513684,10.569 L16.6650921,10.474 L16.9060789,10.4055 L17.1714079,10.3605 L17.4713026,10.3445 L17.6154079,10.3485 L17.7668158,10.364 L17.9187105,10.39 L18.0701184,10.428 L18.2176316,10.4855 L18.3622237,10.554 L18.4951316,10.645 L18.6168421,10.751 L18.7273553,10.88 L18.8203421,11.0325 L18.8938553,11.2065 L18.9459474,11.408 L18.9756447,11.635 L18.9790526,11.893 L18.95325,12.1815 L18.8972632,12.501 L18.87925,12.7325 L16.1855526,12.7325 L16.3549737,11.984 L17.9737237,11.984 L17.9815132,11.89 L17.9771316,11.7985 L17.9693421,11.715 L17.9552237,11.6395 L17.9294211,11.567 L17.9036184,11.502 L17.8666184,11.4455 L17.8296184,11.3925 L17.7858026,11.347 L17.7371184,11.309 L17.6816184,11.275 L17.6261184,11.244 L17.5672105,11.222 L17.5078158,11.2065 L17.4450132,11.195 L17.3788026,11.1875 L17.3082105,11.1915 L17.242,11.2025 L17.1791974,11.2185 L17.1163947,11.2405 L17.0531053,11.271 L16.9985789,11.3055 L16.9421053,11.347 L16.8948816,11.3925 L16.8466842,11.4455 L16.8018947,11.502 L16.7619737,11.5635 L16.7283816,11.6285 L16.6947895,11.6965 L16.6689868,11.772 L16.6470789,11.848 L16.6319868,11.9275 L16.4844737,12.713" id="Stroke-206" stroke="#FFFFFF" stroke-width="0.216"></path>
                            <polyline id="Fill-207" fill="#FFFFFF" points="25.2977763 10.6525 25.2500658 10.626 25.2023553 10.603 25.1497763 10.5765 25.0947632 10.5495 25.0387763 10.527 24.9769474 10.5045 24.9136579 10.4815 24.8479342 10.459 24.7773421 10.44 24.7062632 10.425 24.6293421 10.4095 24.5519342 10.398 24.4667368 10.39 24.3820263 10.383 24.1084211 10.383 24.0120263 10.39 23.9122237 10.402 23.8090132 10.421 23.7053158 10.451 23.6021053 10.493 23.4988947 10.546 23.3947105 10.614 23.2953947 10.698 23.1985132 10.7965 23.1060132 10.918 23.0183816 11.0585 22.9365921 11.225 22.8591842 11.415 22.7890789 11.6285 22.7301711 11.871 22.7072895 12.007 22.6931711 12.14 22.6853816 12.273 22.6897632 12.402 22.6999868 12.531 22.7257895 12.6525 22.7593816 12.7665 22.7997895 12.88 22.8552895 12.983 22.9215 13.081 22.9998816 13.1685 23.0884868 13.2485 23.1878026 13.317 23.3022105 13.3735 23.4283026 13.423 23.5685132 13.457 23.6167105 13.468 23.6726974 13.4795 23.7393947 13.4875 23.8129079 13.495 23.8937237 13.503 24.0709342 13.503 24.1639211 13.495 24.2598289 13.4835 24.3557368 13.4645 24.4482368 13.438 24.5407368 13.408 24.63275 13.366 24.7174605 13.317 24.7953553 13.256 24.8693553 13.188 24.7038289 14.2015 24.6809474 14.22 24.6590395 14.243 24.6293421 14.27 24.5962368 14.2915 24.5558289 14.322 24.5037368 14.349 24.4443421 14.3755 24.3781316 14.398 24.2929342 14.425 24.1970263 14.444 24.0865132 14.4595 23.9565263 14.4745 23.8129079 14.482 23.6459211 14.486 23.4584868 14.482 23.2506053 14.4705 23.0806974 14.4515 22.9107895 14.4135 22.7408816 14.357 22.5709737 14.2805 22.4083684 14.19 22.2525789 14.0755 22.1055526 13.943 21.96875 13.7915 21.8460658 13.6205 21.7433421 13.431 21.65425 13.2185 21.5885263 12.9865 21.5437368 12.7325 21.5286447 12.463 21.5364342 12.167 21.5763553 11.8515 21.6065395 11.6965 21.6391579 11.5445 21.6766447 11.3965 21.7141316 11.256 21.7535658 11.123 21.8017632 10.9905 21.8504474 10.865 21.9020526 10.7475 21.9580395 10.6295 22.0130526 10.5195 22.0758553 10.4135 22.1415789 10.315 22.2087632 10.2195 22.2827632 10.129 22.3562763 10.0455 22.4341711 9.9655 22.5188816 9.8895 22.6040789 9.8175 22.6931711 9.753 22.7856711 9.692 22.8849868 9.635 22.9847895 9.5865 23.0884868 9.5405 23.1955921 9.4985 23.3104868 9.4605 23.4239211 9.4305 23.5427105 9.4035 23.6688026 9.381 23.7939211 9.3615 23.9268289 9.347 24.0602237 9.3395 24.2004342 9.335 24.3197105 9.3395 24.4336316 9.347 24.5446316 9.3585 24.6551447 9.3735 24.7588421 9.3885 24.8586447 9.411 24.9545526 9.4305 25.0431579 9.453 25.1283553 9.4755 25.2023553 9.4985 25.2729474 9.5215 25.3313684 9.544 25.3834605 9.563 25.4272763 9.5785 25.4608684 9.5935 25.4832632 9.6015 25.2977763 10.6525"></polyline>
                            <polyline id="Stroke-208" stroke="#FFFFFF" stroke-width="0.216" points="25.2977763 10.6525 25.2977763 10.6525 25.2500658 10.626 25.2023553 10.603 25.1497763 10.5765 25.0947632 10.5495 25.0387763 10.527 24.9769474 10.5045 24.9136579 10.4815 24.8479342 10.459 24.7773421 10.44 24.7062632 10.425 24.6293421 10.4095 24.5519342 10.398 24.4667368 10.39 24.3820263 10.383 24.1084211 10.383 24.0120263 10.39 23.9122237 10.402 23.8090132 10.421 23.7053158 10.451 23.6021053 10.493 23.4988947 10.546 23.3947105 10.614 23.2953947 10.698 23.1985132 10.7965 23.1060132 10.918 23.0183816 11.0585 22.9365921 11.225 22.8591842 11.415 22.7890789 11.6285 22.7301711 11.871 22.7072895 12.007 22.6931711 12.14 22.6853816 12.273 22.6897632 12.402 22.6999868 12.531 22.7257895 12.6525 22.7593816 12.7665 22.7997895 12.88 22.8552895 12.983 22.9215 13.081 22.9998816 13.1685 23.0884868 13.2485 23.1878026 13.317 23.3022105 13.3735 23.4283026 13.423 23.5685132 13.457 23.6167105 13.468 23.6726974 13.4795 23.7393947 13.4875 23.8129079 13.495 23.8937237 13.503 24.0709342 13.503 24.1639211 13.495 24.2598289 13.4835 24.3557368 13.4645 24.4482368 13.438 24.5407368 13.408 24.63275 13.366 24.7174605 13.317 24.7953553 13.256 24.8693553 13.188 24.7038289 14.2015 24.6809474 14.22 24.6590395 14.243 24.6293421 14.27 24.5962368 14.2915 24.5558289 14.322 24.5037368 14.349 24.4443421 14.3755 24.3781316 14.398 24.2929342 14.425 24.1970263 14.444 24.0865132 14.4595 23.9565263 14.4745 23.8129079 14.482 23.6459211 14.486 23.4584868 14.482 23.2506053 14.4705 23.0806974 14.4515 22.9107895 14.4135 22.7408816 14.357 22.5709737 14.2805 22.4083684 14.19 22.2525789 14.0755 22.1055526 13.943 21.96875 13.7915 21.8460658 13.6205 21.7433421 13.431 21.65425 13.2185 21.5885263 12.9865 21.5437368 12.7325 21.5286447 12.463 21.5364342 12.167 21.5763553 11.8515 21.6065395 11.6965 21.6391579 11.5445 21.6766447 11.3965 21.7141316 11.256 21.7535658 11.123 21.8017632 10.9905 21.8504474 10.865 21.9020526 10.7475 21.9580395 10.6295 22.0130526 10.5195 22.0758553 10.4135 22.1415789 10.315 22.2087632 10.2195 22.2827632 10.129 22.3562763 10.0455 22.4341711 9.9655 22.5188816 9.8895 22.6040789 9.8175 22.6931711 9.753 22.7856711 9.692 22.8849868 9.635 22.9847895 9.5865 23.0884868 9.5405 23.1955921 9.4985 23.3104868 9.4605 23.4239211 9.4305 23.5427105 9.4035 23.6688026 9.381 23.7939211 9.3615 23.9268289 9.347 24.0602237 9.3395 24.2004342 9.335 24.3197105 9.3395 24.4336316 9.347 24.5446316 9.3585 24.6551447 9.3735 24.7588421 9.3885 24.8586447 9.411 24.9545526 9.4305 25.0431579 9.453 25.1283553 9.4755 25.2023553 9.4985 25.2729474 9.5215 25.3313684 9.544 25.3834605 9.563 25.4272763 9.5785 25.4608684 9.5935 25.4832632 9.6015 25.2977763 10.6525"></polyline>
                            <polyline id="Fill-209" fill="#FFFFFF" points="34.3963684 14.4895 33.3725395 14.4895 33.4470263 14.0685 33.4470263 14.03 33.3876316 14.1065 33.3243421 14.174 33.2620263 14.235 33.1958158 14.2885 33.1291184 14.338 33.0624211 14.379 32.9957237 14.4135 32.9256184 14.448 32.8555132 14.4745 32.7854079 14.4935 32.7148158 14.512 32.6408158 14.523 32.5677895 14.535 32.4971974 14.5425 32.4236842 14.5465 32.3496842 14.5465 32.1573816 14.531 31.9796842 14.4895 31.8170789 14.425 31.6690789 14.338 31.5361711 14.2275 31.4178684 14.099 31.3141711 13.958 31.2255658 13.799 31.1525395 13.6275 31.0931447 13.45 31.05225 13.264 31.0225526 13.07 31.0118421 12.8765 31.01525 12.6795 31.0332632 12.4855 31.0668553 12.2925 31.1223553 12.0675 31.1885658 11.8555 31.2669474 11.662 31.3589605 11.48 31.4543816 11.309 31.5658684 11.157 31.6797895 11.021 31.8024737 10.8955 31.9314868 10.785 32.0682895 10.6905 32.2089868 10.607 32.3496842 10.5425 32.4971974 10.489 32.6447105 10.455 32.7922237 10.4325 32.9436316 10.425 33.0517105 10.428 33.1549211 10.44 33.2513158 10.459 33.3394342 10.4855 33.4246316 10.516 33.4991184 10.5495 33.5726316 10.592 33.6393289 10.6335 33.6982368 10.6785 33.75325 10.7285 33.8014474 10.7775 33.84575 10.827 33.88275 10.8765 33.9163421 10.9255 33.9460395 10.9715 33.9674605 11.017 34.2269474 9.5255 35.2317895 9.5255 34.3963684 14.4895"></polyline>
                            <polyline id="Stroke-210" stroke="#FFFFFF" stroke-width="0.216" points="34.3963684 14.4895 33.3725395 14.4895 33.4470263 14.0685 33.4470263 14.03 33.3876316 14.1065 33.3243421 14.174 33.2620263 14.235 33.1958158 14.2885 33.1291184 14.338 33.0624211 14.379 32.9957237 14.4135 32.9256184 14.448 32.8555132 14.4745 32.7854079 14.4935 32.7148158 14.512 32.6408158 14.523 32.5677895 14.535 32.4971974 14.5425 32.4236842 14.5465 32.3496842 14.5465 32.1573816 14.531 31.9796842 14.4895 31.8170789 14.425 31.6690789 14.338 31.5361711 14.2275 31.4178684 14.099 31.3141711 13.958 31.2255658 13.799 31.1525395 13.6275 31.0931447 13.45 31.05225 13.264 31.0225526 13.07 31.0118421 12.8765 31.01525 12.6795 31.0332632 12.4855 31.0668553 12.2925 31.1223553 12.0675 31.1885658 11.8555 31.2669474 11.662 31.3589605 11.48 31.4543816 11.309 31.5658684 11.157 31.6797895 11.021 31.8024737 10.8955 31.9314868 10.785 32.0682895 10.6905 32.2089868 10.607 32.3496842 10.5425 32.4971974 10.489 32.6447105 10.455 32.7922237 10.4325 32.9436316 10.425 33.0517105 10.428 33.1549211 10.44 33.2513158 10.459 33.3394342 10.4855 33.4246316 10.516 33.4991184 10.5495 33.5726316 10.592 33.6393289 10.6335 33.6982368 10.6785 33.75325 10.7285 33.8014474 10.7775 33.84575 10.827 33.88275 10.8765 33.9163421 10.9255 33.9460395 10.9715 33.9674605 11.017 34.2269474 9.5255 35.2317895 9.5255 34.3963684 14.4895"></polyline>
                            <polyline id="Fill-211" fill="#FBB231" points="32.7221184 13.571 32.8258158 13.5635 32.9217237 13.541 33.0108158 13.5145 33.0960132 13.4725 33.1734211 13.4275 33.2474211 13.3695 33.3175263 13.306 33.3803289 13.2365 33.4353421 13.161 33.4874342 13.0775 33.5351447 12.99 33.5765263 12.8995 33.6130395 12.804 33.6427368 12.7055 33.6685395 12.603 33.6870395 12.501 33.7050526 12.395 33.7167368 12.285 33.7167368 12.1815 33.7133289 12.076 33.7021316 11.977 33.6870395 11.882 33.6612368 11.791 33.6315395 11.7035 33.5945395 11.6285 33.5502368 11.556 33.5025263 11.4945 33.4470263 11.442 33.3842237 11.3965 33.3175263 11.366 33.2474211 11.347 33.1700132 11.339 33.0697237 11.347 32.9772237 11.362 32.8925132 11.3925 32.8073158 11.4305 32.7338026 11.48 32.6593158 11.5405 32.597 11.605 32.5337105 11.6775 32.4786974 11.76 32.4266053 11.848 32.3779211 11.939 32.338 12.0375 32.301 12.14 32.2717895 12.243 32.2420921 12.3525 32.2201842 12.463 32.2011974 12.63 32.2089868 12.812 32.2343026 12.9975 32.2834737 13.176 32.3565 13.332 32.4528947 13.457 32.5746053 13.541 32.7221184 13.571"></polyline>
                            <polyline id="Fill-212" fill="#FFFFFF" points="10.0289474 13.647 9.88046053 14.4895 8.94913158 14.4895 8.97493421 14.334 8.99440789 14.1935 9.00803947 14.0875 9.02313158 14.03 8.97152632 14.091 8.91213158 14.152 8.84251316 14.209 8.76413158 14.2615 8.67601316 14.315 8.58351316 14.36 8.48711842 14.406 8.38731579 14.444 8.27972368 14.478 8.17359211 14.505 8.06551316 14.5275 7.95548684 14.5425 7.84789474 14.5505 7.74127632 14.554 7.63757895 14.5425 7.53728947 14.5275 7.40778947 14.4935 7.28997368 14.455 7.18627632 14.406 7.09377632 14.349 7.01296053 14.2885 6.93944737 14.22 6.87956579 14.1475 6.82796053 14.072 6.78414474 13.9925 6.74665789 13.9085 6.71744737 13.8255 6.69505263 13.742 6.67996053 13.6545 6.66925 13.567 6.66194737 13.4835 6.66194737 13.4 6.67265789 13.252 6.69505263 13.1115 6.73205263 12.979 6.78025 12.8495 6.83915789 12.7285 6.90536842 12.6185 6.98326316 12.5125 7.07186842 12.417 7.16485526 12.33 7.26806579 12.25 7.37517105 12.178 7.48568421 12.117 7.60398684 12.065 7.72618421 12.0225 7.85178947 11.9885 7.98128947 11.9655 7.98810526 11.9655 8.00660526 11.9615 8.03289474 11.958 8.07330263 11.954 8.11760526 11.9465 8.16921053 11.9425 8.22471053 11.935 8.28751316 11.9275 8.35031579 11.9205 8.41360526 11.9125 8.48030263 11.9085 8.53921053 11.901 8.59860526 11.8975 8.65313158 11.893 8.70571053 11.89 8.83131579 11.89 8.91992105 11.893 9.00073684 11.8975 9.08203947 11.8975 9.14873684 11.901 9.20082895 11.9045 9.23734211 11.9085 9.24853947 11.9085 9.25584211 11.882 9.27823684 11.814 9.29625 11.7335 9.30355263 11.662 9.28894737 11.5785 9.25584211 11.502 9.21153947 11.434 9.15214474 11.377 9.08203947 11.3285 9.00463158 11.294 8.91553947 11.271 8.82011842 11.2635 8.71642105 11.2595 8.60493421 11.256 8.49052632 11.256 8.37271053 11.2595 8.251 11.2675 8.13221053 11.2785 8.01439474 11.29 7.89998684 11.3055 7.7885 11.32 7.68139474 11.339 7.58548684 11.358 7.49688158 11.377 7.41557895 11.4005 7.34888158 11.4225 7.29727632 11.4495 7.25638158 11.472 7.51878947 10.5575 7.60057895 10.5235 7.68139474 10.493 7.77048684 10.4665 7.85909211 10.447 7.94818421 10.428 8.04409211 10.4135 8.14 10.398 8.23980263 10.39 8.34301316 10.383 8.45011842 10.379 8.56111842 10.375 8.91553947 10.375 9.04552632 10.379 9.17502632 10.383 9.27823684 10.39 9.38923684 10.4095 9.50364474 10.436 9.62146053 10.4705 9.73635526 10.516 9.84735526 10.569 9.95786842 10.6335 10.0620526 10.7055 10.1530921 10.7895 10.2353684 10.88 10.3098553 10.9825 10.3643816 11.0965 10.4018684 11.2185 10.4232895 11.347 10.4232895 11.491 10.4018684 11.643 10.0289474 13.647"></polyline>
                            <polyline id="Stroke-213" stroke="#FFFFFF" stroke-width="0.216" points="10.0289474 13.647 9.88046053 14.4895 8.94913158 14.4895 8.97493421 14.334 8.99440789 14.1935 9.00803947 14.0875 9.02313158 14.03 8.97152632 14.091 8.91213158 14.152 8.84251316 14.209 8.76413158 14.2615 8.67601316 14.315 8.58351316 14.36 8.48711842 14.406 8.38731579 14.444 8.27972368 14.478 8.17359211 14.505 8.06551316 14.5275 7.95548684 14.5425 7.84789474 14.5505 7.74127632 14.554 7.63757895 14.5425 7.53728947 14.5275 7.40778947 14.4935 7.28997368 14.455 7.18627632 14.406 7.09377632 14.349 7.01296053 14.2885 6.93944737 14.22 6.87956579 14.1475 6.82796053 14.072 6.78414474 13.9925 6.74665789 13.9085 6.71744737 13.8255 6.69505263 13.742 6.67996053 13.6545 6.66925 13.567 6.66194737 13.4835 6.66194737 13.4 6.67265789 13.252 6.69505263 13.1115 6.73205263 12.979 6.78025 12.8495 6.83915789 12.7285 6.90536842 12.6185 6.98326316 12.5125 7.07186842 12.417 7.16485526 12.33 7.26806579 12.25 7.37517105 12.178 7.48568421 12.117 7.60398684 12.065 7.72618421 12.0225 7.85178947 11.9885 7.98128947 11.9655 7.98810526 11.9655 8.00660526 11.9615 8.03289474 11.958 8.07330263 11.954 8.11760526 11.9465 8.16921053 11.9425 8.22471053 11.935 8.28751316 11.9275 8.35031579 11.9205 8.41360526 11.9125 8.48030263 11.9085 8.53921053 11.901 8.59860526 11.8975 8.65313158 11.893 8.70571053 11.89 8.83131579 11.89 8.91992105 11.893 9.00073684 11.8975 9.08203947 11.8975 9.14873684 11.901 9.20082895 11.9045 9.23734211 11.9085 9.24853947 11.9085 9.25584211 11.882 9.27823684 11.814 9.29625 11.7335 9.30355263 11.662 9.28894737 11.5785 9.25584211 11.502 9.21153947 11.434 9.15214474 11.377 9.08203947 11.3285 9.00463158 11.294 8.91553947 11.271 8.82011842 11.2635 8.71642105 11.2595 8.60493421 11.256 8.49052632 11.256 8.37271053 11.2595 8.251 11.2675 8.13221053 11.2785 8.01439474 11.29 7.89998684 11.3055 7.7885 11.32 7.68139474 11.339 7.58548684 11.358 7.49688158 11.377 7.41557895 11.4005 7.34888158 11.4225 7.29727632 11.4495 7.25638158 11.472 7.51878947 10.5575 7.60057895 10.5235 7.68139474 10.493 7.77048684 10.4665 7.85909211 10.447 7.94818421 10.428 8.04409211 10.4135 8.14 10.398 8.23980263 10.39 8.34301316 10.383 8.45011842 10.379 8.56111842 10.375 8.91553947 10.375 9.04552632 10.379 9.17502632 10.383 9.27823684 10.39 9.38923684 10.4095 9.50364474 10.436 9.62146053 10.4705 9.73635526 10.516 9.84735526 10.569 9.95786842 10.6335 10.0620526 10.7055 10.1530921 10.7895 10.2353684 10.88 10.3098553 10.9825 10.3643816 11.0965 10.4018684 11.2185 10.4232895 11.347 10.4232895 11.491 10.4018684 11.643 10.0289474 13.647"></polyline>
                            <polyline id="Fill-214" fill="#EC1C2E" points="9.13802632 12.656 9.13413158 12.6375 9.11903947 12.6185 9.09713158 12.607 9.06013158 12.5995 9.01923684 12.592 8.97152632 12.588 8.86003947 12.588 8.80161842 12.592 8.73881579 12.5995 8.67990789 12.607 8.62051316 12.615 8.56501316 12.6225 8.51292105 12.6335 8.46910526 12.645 8.42821053 12.656 8.40240789 12.6635 8.37271053 12.6755 8.33230263 12.6905 8.29092105 12.7095 8.24321053 12.7325 8.19501316 12.759 8.14389474 12.7855 8.09569737 12.816 8.04409211 12.8535 7.99589474 12.8915 7.95110526 12.9375 7.91118421 12.983 7.87369737 13.032 7.84789474 13.0855 7.82647368 13.146 7.81430263 13.2065 7.81138158 13.336 7.82939474 13.438 7.86639474 13.5145 7.91459211 13.571 7.97009211 13.609 8.03289474 13.6315 8.09228947 13.643 8.15119737 13.647 8.26171053 13.643 8.362 13.6315 8.45790789 13.616 8.54310526 13.5935 8.61661842 13.567 8.68672368 13.5335 8.74952632 13.499 8.80551316 13.457 8.85371053 13.419 8.89703947 13.3735 8.93452632 13.332 8.96422368 13.2865 8.98953947 13.241 9.01290789 13.1955 9.03092105 13.1535 9.04114474 13.1115 9.07132895 13.002 9.09713158 12.8765 9.11903947 12.755 9.13802632 12.656"></polyline>
                            <polyline id="Fill-215" fill="#FFFFFF" points="2.25261842 14.4895 1.24777632 14.4895 2.08709211 9.5065 3.83436842 9.5065 4.00135526 12.463 5.20969737 9.5065 7.03535526 9.5065 6.17753947 14.4895 5.17269737 14.4895 5.80802632 10.7665 5.76810526 10.7665 4.26327632 14.4895 3.12942105 14.4895 3.12163158 14.334 3.09582895 13.92 3.06272368 13.332 3.02523684 12.656 2.98823684 11.977 2.95513158 11.3815 2.92932895 10.949 2.92153947 10.7665 2.86652632 10.7665 2.25261842 14.4895"></polyline>
                            <polyline id="Stroke-216" stroke="#FFFFFF" stroke-width="0.216" points="2.25261842 14.4895 1.24777632 14.4895 2.08709211 9.5065 3.83436842 9.5065 4.00135526 12.463 5.20969737 9.5065 7.03535526 9.5065 6.17753947 14.4895 5.17269737 14.4895 5.80802632 10.7665 5.76810526 10.7665 4.26327632 14.4895 3.12942105 14.4895 3.12163158 14.334 3.09582895 13.92 3.06272368 13.332 3.02523684 12.656 2.98823684 11.977 2.95513158 11.3815 2.92932895 10.949 2.92153947 10.7665 2.86652632 10.7665 2.25261842 14.4895"></polyline>
                            <polyline id="Fill-217" fill="#FFFFFF" points="28.36975 13.647 28.2178553 14.4895 27.2904211 14.4895 27.2972368 14.334 27.3011316 14.1975 27.3011316 14.095 27.3084342 14.0495 27.2607237 14.1065 27.2047368 14.163 27.1390132 14.216 27.0645263 14.27 26.9876053 14.3185 26.8985132 14.364 26.8060132 14.41 26.7135132 14.448 26.6137105 14.478 26.5100132 14.508 26.4072895 14.5275 26.3035921 14.5425 26.196 14.5505 26.0932763 14.554 25.9929868 14.5425 25.8931842 14.5275 25.7602763 14.4935 25.6424605 14.455 25.5382763 14.406 25.4418816 14.349 25.3610658 14.2885 25.2904737 14.22 25.2315658 14.1475 25.1804474 14.072 25.1356579 13.9925 25.1025526 13.9085 25.0728553 13.8255 25.0543553 13.742 25.0387763 13.6545 25.0285526 13.567 25.0207632 13.4835 25.0207632 13.4 25.0285526 13.252 25.0509474 13.1115 25.0835658 12.979 25.13225 12.8495 25.1872632 12.7285 25.2573684 12.6185 25.3352632 12.5125 25.4199737 12.417 25.5163684 12.33 25.6161711 12.25 25.7232763 12.178 25.8381711 12.117 25.9525789 12.065 26.0742895 12.0225 26.196 11.9885 26.3216053 11.9655 26.3293947 11.9655 26.3474079 11.9615 26.3736974 11.958 26.4106974 11.954 26.4588947 11.9465 26.5100132 11.9425 26.566 11.935 26.6244211 11.9275 26.6877105 11.9205 26.7544079 11.9125 26.8172105 11.9085 26.8800132 11.901 26.9389211 11.8975 26.9905263 11.893 27.0426184 11.89 27.1721184 11.89 27.2607237 11.893 27.3454342 11.8975 27.4267368 11.8975 27.4973289 11.901 27.5562368 11.9045 27.5893421 11.9085 27.6044342 11.9085 27.6122237 11.882 27.6229342 11.814 27.6336447 11.7335 27.6409474 11.662 27.6268289 11.5785 27.5976184 11.502 27.5494211 11.434 27.4929474 11.377 27.4267368 11.3285 27.3493289 11.294 27.2680263 11.271 27.1789342 11.2635 27.0752368 11.2595 26.9652105 11.256 26.8503158 11.256 26.7315263 11.2595 26.6103026 11.2675 26.492 11.2785 26.3736974 11.29 26.2588026 11.3055 26.1478026 11.32 26.0411842 11.339 25.9447895 11.358 25.8561842 11.377 25.7748816 11.4005 25.7086711 11.4225 25.6560921 11.4495 25.6161711 11.472 25.8746842 10.5575 25.9555 10.5235 26.0411842 10.493 26.1263816 10.4665 26.2145 10.447 26.307 10.428 26.3999868 10.4135 26.4949211 10.398 26.5956974 10.39 26.6984211 10.383 26.8060132 10.379 26.9131184 10.375 27.2607237 10.375 27.3863289 10.379 27.5119342 10.383 27.6156316 10.39 27.7261447 10.4095 27.8405526 10.436 27.9593421 10.4705 28.0742368 10.516 28.1876711 10.569 28.2986711 10.6335 28.4023684 10.7055 28.4953553 10.7895 28.5795789 10.88 28.6530921 10.9825 28.7090789 11.0965 28.7499737 11.2185 28.7762632 11.347 28.7762632 11.491 28.7572763 11.643 28.36975 13.647"></polyline>
                            <polyline id="Fill-219" fill="#FFFFFF" points="27.2680263 14.4895 27.2904211 14.516 28.2178553 14.516 28.2178553 14.463 27.2904211 14.463 27.3128158 14.4895 27.2680263 14.4895 27.2646184 14.516 27.2904211 14.516 27.2680263 14.4895"></polyline>
                            <polyline id="Fill-221" fill="#FFFFFF" points="25.8897763 14.5505 25.8897763 14.5505 25.9929868 14.5655 26.0932763 14.5765 26.196 14.5735 26.3035921 14.5655 26.4106974 14.5505 26.5139079 14.531 26.6176053 14.5015 26.7208158 14.4705 26.8133158 14.4325 26.9092237 14.3875 26.9988026 14.342 27.0752368 14.2885 27.1531316 14.235 27.2193421 14.1825 27.2792237 14.121 27.3274211 14.064 27.2904211 14.034 27.2422237 14.091 27.1906184 14.144 27.1234342 14.1975 27.0538158 14.2505 26.9759211 14.296 26.8878026 14.342 26.7987105 14.3875 26.7062105 14.425 26.6103026 14.455 26.5066053 14.486 26.4029079 14.505 26.3035921 14.5195 26.196 14.5275 26.0932763 14.531 25.9929868 14.5195 25.8970789 14.505 25.8897763 14.5505"></polyline>
                            <polyline id="Fill-222" fill="#FFFFFF" points="24.9954474 13.4 24.9954474 13.4 24.9988553 13.4835 25.0061579 13.567 25.0178421 13.6585 25.0324474 13.7455 25.0509474 13.829 25.0806447 13.9165 25.1132632 14.0035 25.1619474 14.0835 25.2130658 14.163 25.2729474 14.235 25.3464605 14.307 25.4311711 14.368 25.5275658 14.429 25.6351579 14.478 25.7563816 14.516 25.8897763 14.5505 25.8970789 14.505 25.7636842 14.4705 25.6497632 14.4325 25.5494737 14.3835 25.4530789 14.33 25.3756711 14.27 25.3089737 14.2045 25.2500658 14.1325 25.1979737 14.0605 25.1580526 13.981 25.1249474 13.901 25.0947632 13.822 25.07675 13.738 25.0621447 13.6505 25.0509474 13.567 25.0431579 13.4835 25.0470526 13.4 24.9954474 13.4"></polyline>
                            <polyline id="Fill-223" fill="#FFFFFF" points="26.3216053 11.9425 26.3216053 11.9425 26.1925921 11.9655 26.0669868 12 25.9447895 12.0415 25.8269737 12.0945 25.7115921 12.155 25.6015658 12.2315 25.5012763 12.3115 25.4053684 12.402 25.3167632 12.497 25.2388684 12.603 25.1648684 12.717 25.1098553 12.8425 25.0621447 12.9715 25.0285526 13.108 25.0061579 13.252 24.9954474 13.4 25.0470526 13.4 25.0509474 13.252 25.0728553 13.1155 25.1059605 12.9865 25.1541579 12.8575 25.2091711 12.7395 25.2753816 12.6335 25.3537632 12.527 25.4345789 12.4325 25.5304868 12.349 25.6307763 12.269 25.7335 12.201 25.8493684 12.14 25.9593947 12.0875 26.0815921 12.0455 26.1998947 12.011 26.3216053 11.9885 26.3216053 11.9425"></polyline>
                            <polyline id="Fill-224" fill="#FFFFFF" points="27.0830263 11.863 27.0426184 11.863 26.9905263 11.871 26.9389211 11.8755 26.8800132 11.8785 26.8172105 11.8855 26.7544079 11.89 26.6877105 11.8975 26.6244211 11.9045 26.566 11.9125 26.5100132 11.9205 26.4588947 11.9235 26.4106974 11.9315 26.3736974 11.935 26.344 11.939 26.3293947 11.9425 26.3216053 11.9425 26.3216053 11.9885 26.3293947 11.9885 26.3513026 11.984 26.3736974 11.981 26.4106974 11.977 26.4588947 11.9695 26.5100132 11.9655 26.566 11.958 26.6244211 11.95 26.6877105 11.9425 26.7544079 11.935 26.8172105 11.9315 26.8800132 11.9235 26.9389211 11.9205 26.9905263 11.916 27.0830263 11.916 27.0830263 11.863"></polyline>
                            <polyline id="Fill-225" fill="#FFFFFF" points="27.5820395 11.9045 27.6044342 11.8855 27.5893421 11.8855 27.5562368 11.882 27.4973289 11.8785 27.4267368 11.871 27.2607237 11.871 27.1721184 11.863 27.0830263 11.863 27.0830263 11.916 27.2607237 11.916 27.3454342 11.9235 27.4973289 11.9235 27.5562368 11.9275 27.5893421 11.9315 27.6044342 11.9315 27.6268289 11.9125 27.6044342 11.9315 27.6229342 11.935 27.6268289 11.9125 27.5820395 11.9045"></polyline>
                            <polyline id="Fill-228" fill="#FFFFFF" points="25.5937763 11.4685 25.6307763 11.491 25.6677763 11.472 25.7154868 11.4455 25.7792632 11.4225 25.8595921 11.4005 25.9491711 11.3815 26.0445921 11.362 26.1516974 11.343 26.2588026 11.3285 26.3736974 11.3125 26.492 11.301 26.6103026 11.29 26.7315263 11.2825 27.0752368 11.2825 27.1789342 11.286 27.1789342 11.2405 27.0752368 11.237 26.9652105 11.229 26.8503158 11.229 26.7315263 11.237 26.6103026 11.244 26.492 11.256 26.3736974 11.2675 26.2588026 11.2825 26.1443947 11.297 26.0368026 11.317 25.9413816 11.336 25.8522895 11.355 25.7709868 11.377 25.7013684 11.4005 25.6458684 11.4265 25.6015658 11.453 25.6385658 11.476 25.5937763 11.4685"></polyline>
                            <polyline id="Fill-230" fill="#FFFFFF" points="27.5119342 10.3605 27.5119342 10.3605 27.3863289 10.353 27.2607237 10.3485 26.9131184 10.3485 26.8060132 10.3565 26.6984211 10.3605 26.5956974 10.3685 26.4949211 10.375 26.3956053 10.39 26.3035921 10.4055 26.2110921 10.425 26.122 10.444 26.0338816 10.4705 25.9491711 10.5005 25.8678684 10.5345 25.8819868 10.5805 25.9637763 10.546 26.048 10.516 26.1293026 10.489 26.2183947 10.4705 26.3113816 10.451 26.4029079 10.436 26.4949211 10.421 26.5956974 10.4135 26.6984211 10.4055 26.8060132 10.402 27.2607237 10.402 27.3863289 10.4055 27.5119342 10.4055 27.5119342 10.3605"></polyline>
                            <polyline id="Fill-231" fill="#FFFFFF" points="28.7796711 11.647 28.7796711 11.647 28.7976842 11.491 28.7976842 11.347 28.7723684 11.2135 28.7314737 11.0885 28.6725658 10.9715 28.5975921 10.865 28.5094737 10.7705 28.4174605 10.6865 28.3098684 10.614 28.1988684 10.546 28.0810526 10.493 27.9661579 10.447 27.8449342 10.4135 27.7295526 10.387 27.6156316 10.3685 27.5119342 10.3605 27.5119342 10.4055 27.6156316 10.4135 27.72225 10.4325 27.8371447 10.459 27.9510658 10.493 28.0664474 10.5385 28.1769605 10.592 28.2879605 10.6525 28.3877632 10.7245 28.4802632 10.8075 28.5615658 10.8955 28.6350789 10.9935 28.6866842 11.1045 28.7275789 11.222 28.7538684 11.347 28.7538684 11.491 28.7348816 11.6395 28.7796711 11.647"></polyline>
                            <polyline id="Fill-233" fill="#FBB231" points="27.4749342 12.656 27.4676316 12.6335 27.4535132 12.615 27.4267368 12.603 27.3902237 12.592 27.3493289 12.588 27.3011316 12.584 27.2456316 12.584 27.1906184 12.588 27.1312237 12.5955 27.0718289 12.603 27.0129211 12.611 26.9569342 12.6185 26.9028947 12.63 26.8542105 12.6375 26.8060132 12.649 26.7690132 12.656 26.7436974 12.66 26.7135132 12.6715 26.677 12.683 26.6356184 12.698 26.5874211 12.7205 26.5436053 12.744 26.492 12.7705 26.4438026 12.804 26.3956053 12.8385 26.3474079 12.88 26.307 12.9215 26.2665921 12.9715 26.233 13.0245 26.2071974 13.081 26.1852895 13.142 26.1745789 13.2065 26.1706842 13.336 26.1882105 13.438 26.2183947 13.5145 26.2626974 13.571 26.3181974 13.609 26.381 13.6315 26.4438026 13.643 26.5066053 13.647 26.6176053 13.643 26.7208158 13.6315 26.8172105 13.6125 26.9028947 13.5865 26.9832237 13.556 27.0538158 13.522 27.1200263 13.4835 27.1789342 13.438 27.2315132 13.3965 27.2748421 13.3475 27.3157368 13.3015 27.3493289 13.252 27.3746447 13.2065 27.3941184 13.161 27.4087237 13.1155 27.4194342 13.074 27.4345263 12.9675 27.4535132 12.8575 27.4676316 12.7515 27.4749342 12.656"></polyline>
                            <polyline id="Fill-234" fill="#FFFFFF" points="35.0871974 13.97 35.0954737 13.882 35.1237105 13.7795 35.1758026 13.6885 35.2386053 13.609 35.3165 13.545 35.4060789 13.499 35.5019868 13.468 35.6047105 13.457 35.7088947 13.468 35.8043158 13.499 35.8934079 13.545 35.9713026 13.609 36.0341053 13.6885 36.0857105 13.7795 36.1149211 13.882 36.1227105 13.97 36.0117105 13.97 36.0083026 13.901 35.9854211 13.8175 35.9484211 13.742 35.9007105 13.677 35.8418026 13.624 35.7716974 13.5865 35.6903947 13.5595 35.6047105 13.552 35.52 13.5595 35.4391842 13.5865 35.3685921 13.624 35.3091974 13.677 35.2614868 13.742 35.2249737 13.8175 35.2025789 13.901 35.1947895 13.97 35.0871974 13.97"></polyline>
                            <polyline id="Fill-236" fill="#FFFFFF" points="35.0871974 13.97 35.0842763 13.9925 35.0954737 14.1025 35.1237105 14.2045 35.1758026 14.296 35.2386053 14.372 35.3165 14.436 35.4060789 14.486 35.5019868 14.516 35.6047105 14.5275 35.7088947 14.516 35.8043158 14.486 35.8934079 14.436 35.9713026 14.372 36.0341053 14.296 36.0857105 14.2045 36.1149211 14.1025 36.1256316 13.9925 36.1227105 13.97 36.0117105 13.97 36.0156053 13.9925 36.0083026 14.0835 35.9854211 14.167 35.9484211 14.2395 35.9007105 14.303 35.8418026 14.357 35.7716974 14.398 35.6903947 14.425 35.6047105 14.4325 35.52 14.425 35.4391842 14.398 35.3685921 14.357 35.3091974 14.303 35.2614868 14.2395 35.2249737 14.167 35.2025789 14.0835 35.1947895 13.9925 35.1947895 13.97 35.0871974 13.97"></polyline>
                            <path d="M35.6047105,14.4325 L35.6903947,14.425 L35.7716974,14.398 L35.8418026,14.357 L35.9007105,14.303 L35.9484211,14.2395 L35.9854211,14.167 L36.0083026,14.0835 L36.0156053,13.9925 L36.0083026,13.901 L35.9854211,13.8175 L35.9484211,13.742 L35.9007105,13.677 L35.8418026,13.624 L35.7716974,13.5865 L35.6903947,13.5595 L35.6047105,13.552 L35.52,13.5595 L35.4391842,13.5865 L35.3685921,13.624 L35.3091974,13.677 L35.2614868,13.742 L35.2249737,13.8175 L35.2025789,13.901 L35.1947895,13.9925 L35.2025789,14.0835 L35.2249737,14.167 L35.2614868,14.2395 L35.3091974,14.303 L35.3685921,14.357 L35.4391842,14.398 L35.52,14.425 L35.6047105,14.4325 M35.6047105,13.9735 L35.6378158,13.9655 L35.6641053,13.962 L35.6860132,13.9545 L35.705,13.947 L35.7196053,13.9355 L35.7273947,13.9235 L35.7342105,13.9055 L35.7342105,13.8785 L35.7303158,13.8595 L35.7230132,13.844 L35.7123026,13.837 L35.7011053,13.829 L35.6821184,13.8255 L35.6641053,13.822 L35.5126974,13.822 L35.5126974,13.9735 L35.6047105,13.9735 M35.5126974,14.2015 L35.4201974,14.2015 L35.4201974,13.742 L35.6232105,13.742 L35.668,13.7455 L35.7088947,13.753 L35.7381053,13.7645 L35.7639079,13.7795 L35.7824079,13.8025 L35.7970132,13.8255 L35.8043158,13.8515 L35.8082105,13.8785 L35.8043158,13.9125 L35.7970132,13.939 L35.7863026,13.962 L35.7716974,13.981 L35.7527105,13.996 L35.7303158,14.0035 L35.705,14.0115 L35.6791974,14.0115 L35.7901974,14.2015 L35.7152237,14.2015 L35.6047105,14.0115 L35.5126974,14.0115 L35.5126974,14.2015 M35.0842763,13.9925 L35.0954737,13.882 L35.1237105,13.7795 L35.1758026,13.6885 L35.2386053,13.609 L35.3165,13.545 L35.4060789,13.499 L35.5019868,13.468 L35.6047105,13.457 L35.7088947,13.468 L35.8043158,13.499 L35.8934079,13.545 L35.9713026,13.609 L36.0341053,13.6885 L36.0857105,13.7795 L36.1149211,13.882 L36.1256316,13.9925 L36.1149211,14.1025 L36.0857105,14.2045 L36.0341053,14.296 L35.9713026,14.372 L35.8934079,14.436 L35.8043158,14.486 L35.7088947,14.516 L35.6047105,14.5275 L35.5019868,14.516 L35.4060789,14.486 L35.3165,14.436 L35.2386053,14.372 L35.1758026,14.296 L35.1237105,14.2045 L35.0954737,14.1025 L35.0842763,13.9925" id="Stroke-238" stroke="#FFFFFF" stroke-width="0.216"></path>
                            <polyline id="Fill-239" fill="#FFFFFF" points="28.6467632 14.4895 29.6890921 14.4895 30.0620132 12.33 30.0766184 12.247 30.0990132 12.163 30.1209211 12.0795 30.1506184 11.996 30.1876184 11.9125 30.2319211 11.8325 30.2801184 11.757 30.3390263 11.6845 30.4057237 11.6205 30.4792368 11.5595 30.5644342 11.502 30.6603421 11.4565 30.7674474 11.4195 30.88575 11.389 31.01525 11.366 31.1588684 11.358 31.2513684 11.358 31.4178684 10.383 31.3141711 10.39 31.2148553 10.402 31.1223553 10.421 31.0332632 10.447 30.9524474 10.4775 30.8745526 10.516 30.8005526 10.5575 30.7304474 10.603 30.6642368 10.6565 30.6009474 10.7095 30.5420395 10.7705 30.4831316 10.8305 30.4276316 10.8955 30.3721316 10.967 30.3166316 11.0355 30.2655132 11.1115 30.3765132 10.425 29.3375921 10.425 28.6467632 14.4895"></polyline>
                            <polyline id="Stroke-240" stroke="#FFFFFF" stroke-width="0.216" points="28.6467632 14.4895 29.6890921 14.4895 30.0620132 12.33 30.0766184 12.247 30.0990132 12.163 30.1209211 12.0795 30.1506184 11.996 30.1876184 11.9125 30.2319211 11.8325 30.2801184 11.757 30.3390263 11.6845 30.4057237 11.6205 30.4792368 11.5595 30.5644342 11.502 30.6603421 11.4565 30.7674474 11.4195 30.88575 11.389 31.01525 11.366 31.1588684 11.358 31.2513684 11.358 31.4178684 10.383 31.3141711 10.39 31.2148553 10.402 31.1223553 10.421 31.0332632 10.447 30.9524474 10.4775 30.8745526 10.516 30.8005526 10.5575 30.7304474 10.603 30.6642368 10.6565 30.6009474 10.7095 30.5420395 10.7705 30.4831316 10.8305 30.4276316 10.8955 30.3721316 10.967 30.3166316 11.0355 30.2655132 11.1115 30.3765132 10.425 29.3375921 10.425 28.6467632 14.4895"></polyline>
                            <polyline id="Fill-241" fill="#FFFFFF" points="18.86075 14.4895 19.9210921 14.4895 20.276 12.33 20.2910921 12.247 20.3091053 12.167 20.3276053 12.0875 20.3538947 12.011 20.3831053 11.935 20.4201053 11.863 20.4644079 11.795 20.5160132 11.7305 20.5754079 11.6725 20.6416184 11.6165 20.7234079 11.5705 20.8120132 11.529 20.9152237 11.4945 21.0301184 11.465 21.1557237 11.4455 21.2993421 11.434 21.3110263 11.434 21.3256316 11.438 21.3441316 11.442 21.3626316 11.442 21.3806447 11.4455 21.3962237 11.4495 21.4064474 11.453 21.4108289 11.453 21.4142368 11.438 21.4254342 11.3925 21.4400395 11.3245 21.4590263 11.2405 21.4843421 11.142 21.5106316 11.0355 21.5437368 10.9295 21.5763553 10.8225 21.6065395 10.751 21.6435395 10.6785 21.6805395 10.607 21.7170526 10.5425 21.7501579 10.4855 21.7759605 10.44 21.7949474 10.4135 21.8017632 10.402 21.7988421 10.402 21.78375 10.398 21.7657368 10.394 21.7394474 10.39 21.7141316 10.39 21.6844342 10.387 21.6581447 10.383 21.6323421 10.383 21.5174474 10.39 21.4142368 10.402 21.3183289 10.421 21.2297237 10.444 21.1450132 10.474 21.0666316 10.5125 20.9965263 10.5495 20.9298289 10.595 20.8675132 10.645 20.8081184 10.702 20.7526184 10.759 20.6976053 10.8225 20.6416184 10.888 20.5900132 10.9605 20.535 11.0355 20.4790132 11.1115 20.6119211 10.425 19.5515789 10.425 18.86075 14.4895"></polyline>
                            <polyline id="Stroke-242" stroke="#FFFFFF" stroke-width="0.216" points="18.86075 14.4895 19.9210921 14.4895 20.276 12.33 20.2910921 12.247 20.3091053 12.167 20.3276053 12.0875 20.3538947 12.011 20.3831053 11.935 20.4201053 11.863 20.4644079 11.795 20.5160132 11.7305 20.5754079 11.6725 20.6416184 11.6165 20.7234079 11.5705 20.8120132 11.529 20.9152237 11.4945 21.0301184 11.465 21.1557237 11.4455 21.2993421 11.434 21.3110263 11.434 21.3256316 11.438 21.3441316 11.442 21.3626316 11.442 21.3806447 11.4455 21.3962237 11.4495 21.4064474 11.453 21.4108289 11.453 21.4142368 11.438 21.4254342 11.3925 21.4400395 11.3245 21.4590263 11.2405 21.4843421 11.142 21.5106316 11.0355 21.5437368 10.9295 21.5763553 10.8225 21.6065395 10.751 21.6435395 10.6785 21.6805395 10.607 21.7170526 10.5425 21.7501579 10.4855 21.7759605 10.44 21.7949474 10.4135 21.8017632 10.402 21.7988421 10.402 21.78375 10.398 21.7657368 10.394 21.7394474 10.39 21.7141316 10.39 21.6844342 10.387 21.6581447 10.383 21.6323421 10.383 21.5174474 10.39 21.4142368 10.402 21.3183289 10.421 21.2297237 10.444 21.1450132 10.474 21.0666316 10.5125 20.9965263 10.5495 20.9298289 10.595 20.8675132 10.645 20.8081184 10.702 20.7526184 10.759 20.6976053 10.8225 20.6416184 10.888 20.5900132 10.9605 20.535 11.0355 20.4790132 11.1115 20.6119211 10.425 19.5515789 10.425 18.86075 14.4895"></polyline>
                            <polyline id="Fill-243" fill="#FBB231" points="35.0954737 18.4825 35.0954737 18.467 35.1237105 18.3685 35.1758026 18.281 35.2386053 18.2055 35.3165 18.1445 35.4060789 18.0985 35.5019868 18.0725 35.6047105 18.061 35.7088947 18.0725 35.8043158 18.0985 35.8934079 18.1445 35.9713026 18.2055 36.0341053 18.281 36.0857105 18.3685 36.1149211 18.467 36.1149211 18.4825 36.0083026 18.4825 35.9854211 18.403 35.9484211 18.3305 35.9007105 18.2655 35.8418026 18.213 35.7716974 18.171 35.6903947 18.1445 35.6047105 18.137 35.52 18.1445 35.4391842 18.171 35.3685921 18.213 35.3091974 18.2655 35.2614868 18.3305 35.2249737 18.403 35.2025789 18.4825 35.0954737 18.4825"></polyline>
                            <polyline id="Fill-248" fill="#FBB231" points="35.0842763 18.5655 35.0842763 18.577 35.0954737 18.687 35.1237105 18.7895 35.1758026 18.8805 35.2386053 18.9605 35.3165 19.0255 35.4060789 19.07 35.5019868 19.101 35.6047105 19.112 35.7088947 19.101 35.8043158 19.07 35.8934079 19.0255 35.9713026 18.9605 36.0341053 18.8805 36.0857105 18.7895 36.1149211 18.687 36.1256316 18.577 36.1256316 18.5655 36.0156053 18.5655 36.0156053 18.577 36.0083026 18.6685 35.9854211 18.752 35.9484211 18.8235 35.9007105 18.8875 35.8418026 18.942 35.7716974 18.9835 35.6903947 19.01 35.6047105 19.0175 35.52 19.01 35.4391842 18.9835 35.3685921 18.942 35.3091974 18.8875 35.2614868 18.8235 35.2249737 18.752 35.2025789 18.6685 35.1947895 18.577 35.1947895 18.5655 35.0842763 18.5655"></polyline>
                            <path d="M17.9737237,11.984 L16.6237105,11.984 L16.6246842,11.981 L16.6227368,11.9805 L16.6319868,11.9275 L16.6470789,11.848 L16.6689868,11.772 L16.6947895,11.6965 L16.7283816,11.6285 L16.7619737,11.5635 L16.8018947,11.502 L16.8466842,11.4455 L16.8948816,11.3925 L16.9421053,11.347 L16.9985789,11.3055 L17.0531053,11.271 L17.1163947,11.2405 L17.1791974,11.2185 L17.242,11.2025 L17.3082105,11.1915 L17.3788026,11.1875 L17.4450132,11.195 L17.5078158,11.2065 L17.5672105,11.222 L17.6261184,11.244 L17.6816184,11.275 L17.7371184,11.309 L17.7858026,11.347 L17.8296184,11.3925 L17.8666184,11.4455 L17.9036184,11.502 L17.9294211,11.567 L17.9552237,11.6395 L17.9693421,11.715 L17.9771316,11.7985 L17.9815132,11.89 L17.9737237,11.984 Z M18.9756447,11.635 L18.9459474,11.408 L18.8938553,11.2065 L18.8203421,11.0325 L18.7273553,10.88 L18.6168421,10.751 L18.4951316,10.645 L18.3622237,10.554 L18.2176316,10.4855 L18.0701184,10.428 L17.9187105,10.39 L17.7668158,10.364 L17.6154079,10.3485 L17.4713026,10.3445 L17.1714079,10.3605 L16.9060789,10.4055 L16.6650921,10.474 L16.4513684,10.569 L16.2663684,10.683 L16.1032763,10.812 L15.9591711,10.956 L15.8413553,11.108 L15.7376579,11.2675 L15.6529474,11.434 L15.5867368,11.598 L15.53075,11.76 L15.4903421,11.9205 L15.4606447,12.0675 L15.4387368,12.2085 L15.4241316,12.33 L15.4056316,12.641 L15.4168289,12.9215 L15.4572368,13.176 L15.5195526,13.4 L15.6091316,13.601 L15.7162368,13.776 L15.8413553,13.9315 L15.9854605,14.0605 L16.1407632,14.171 L16.30775,14.265 L16.4810658,14.338 L16.6616842,14.3945 L16.8466842,14.4405 L17.0316842,14.467 L17.2161974,14.486 L17.3968158,14.4895 L17.5190132,14.4895 L17.6343947,14.486 L17.7332237,14.486 L17.8296184,14.482 L17.9148158,14.4745 L17.9922237,14.467 L18.0657368,14.4595 L18.1324342,14.448 L18.1952368,14.436 L18.2541447,14.4215 L18.3140263,14.402 L18.3695263,14.3835 L18.4245395,14.36 L18.4839342,14.338 L18.5423553,14.307 L18.60175,14.277 L18.74975,13.3435 L18.6426447,13.408 L18.5389474,13.468 L18.4323289,13.5145 L18.3281447,13.556 L18.2288289,13.59 L18.1251316,13.6125 L18.0253289,13.6315 L17.9255263,13.647 L17.8257237,13.6545 L17.7298158,13.6585 L17.6300132,13.6585 L17.5341053,13.6545 L17.4381974,13.647 L17.3418026,13.6355 L17.2493026,13.624 L17.1533947,13.609 L17.0793947,13.5935 L17.0053947,13.567 L16.9318816,13.5335 L16.8646974,13.491 L16.7984868,13.446 L16.7390921,13.3895 L16.6840789,13.332 L16.6319868,13.267 L16.5881711,13.203 L16.5477632,13.1315 L16.5175789,13.0625 L16.4917763,12.99 L16.4771711,12.918 L16.4698684,12.8455 L16.4727895,12.7815 L16.4815526,12.7325 L18.87925,12.7325 L18.8972632,12.501 L18.95325,12.1815 L18.9790526,11.893 L18.9756447,11.635 Z" id="Fill-250" fill="#FFFFFF"></path>
                        </g>
                    </g>
                </g>
            </g>
        </g>
    </g>
</svg>