<?xml version="1.0" encoding="UTF-8" standalone="no"?>
<svg width="37px" height="23px" viewBox="0 0 37 23" version="1.1" xmlns="http://www.w3.org/2000/svg" xmlns:xlink="http://www.w3.org/1999/xlink">
    <!-- Generator: Sketch 48.2 (47327) - http://www.bohemiancoding.com/sketch -->
    <title>Card / Maestro</title>
    <desc>Created with Sketch.</desc>
    <defs></defs>
    <g id="S6-Footer-/-1-/-Dark" stroke="none" stroke-width="1" fill="none" fill-rule="evenodd" transform="translate(-1303.000000, -133.000000)">
        <g id="Columns" transform="translate(100.000000, 98.000000)">
            <g id="Col-Payment" transform="translate(620.000000, 0.000000)">
                <g id="Accepted-Cards" transform="translate(457.000000, 0.000000)">
                    <g id="List" transform="translate(0.000000, 35.000000)">
                        <g id="Card-/-Maestro" transform="translate(126.000000, 0.000000)">
                            <polyline id="Fill-96" fill="#EC1C2E" points="25.7247368 22.92 26.2904474 22.9045 26.8483684 22.8605 27.3960658 22.79 27.9359737 22.69 28.4695526 22.565 28.9919342 22.4125 29.4992237 22.2355 30.0001842 22.032 30.4860526 21.8065 30.9582895 21.558 31.4188421 21.288 31.8623553 20.9925 32.2941842 20.678 32.7089737 20.3455 33.1086711 19.9905 33.4903553 19.6165 33.8496447 19.224 34.1957895 18.8135 34.5239211 18.3885 34.8301447 17.948 35.1144605 17.4895 35.3778421 17.016 35.62175 16.531 35.8422895 16.032 36.0365395 15.5175 36.2093684 14.9965 36.3573684 14.46 36.4800526 13.9165 36.5769342 13.358 36.6450921 12.7955 36.6884211 12.222 36.7035132 11.641 36.6884211 11.0645 36.6450921 10.4945 36.5769342 9.936 36.4800526 9.3815 36.3573684 8.8415 36.2093684 8.309 36.0365395 7.787 35.8422895 7.2765 35.62175 6.7815 35.3778421 6.296 35.1144605 5.826 34.8301447 5.3675 34.5239211 4.928 34.1957895 4.502 33.8496447 4.095 33.4903553 3.7035 33.1086711 3.333 32.7089737 2.978 32.2941842 2.645 31.8623553 2.3305 31.4188421 2.039 30.9582895 1.769 30.4860526 1.5165 30.0001842 1.2915 29.4992237 1.091 28.9919342 0.914 28.4695526 0.7625 27.9359737 0.6365 27.3960658 0.5365 26.8483684 0.4665 26.2904474 0.422 25.7247368 0.4075 25.1595132 0.422 24.6011053 0.4665 24.0538947 0.5365 23.5130132 0.6365 22.9804079 0.7625 22.4614342 0.914 21.95025 1.091 21.4531842 1.2915 20.9673158 1.5165 20.4950789 1.769 20.0374474 2.039 19.5915 2.3305 19.1625921 2.645 18.7482895 2.978 18.3524868 3.333 17.9737237 3.7035 17.6100526 4.095 17.2643947 4.502 16.9401579 4.928 16.6349079 5.3675 16.3501053 5.826 16.0867237 6.296 15.84525 6.7815 15.6295789 7.2765 15.4314342 7.787 15.2581184 8.309 15.1140132 8.8415 14.9918158 9.3815 14.8944474 9.936 14.8258026 10.4945 14.7824737 11.0645 14.7688421 11.641 14.7824737 12.222 14.8258026 12.7955 14.8944474 13.358 14.9918158 13.9165 15.1140132 14.46 15.2581184 14.9965 15.4314342 15.5175 15.6295789 16.032 15.84525 16.531 16.0867237 17.016 16.3501053 17.4895 16.6349079 17.948 16.9401579 18.3885 17.2643947 18.8135 17.6100526 19.224 17.9737237 19.6165 18.3524868 19.9905 18.7482895 20.3455 19.1625921 20.678 19.5915 20.9925 20.0374474 21.288 20.4950789 21.558 20.9673158 21.8065 21.4531842 22.032 21.95025 22.2355 22.4614342 22.4125 22.9804079 22.565 23.5130132 22.69 24.0538947 22.79 24.6011053 22.8605 25.1595132 22.9045 25.7247368 22.92"></polyline>
                            <polyline id="Fill-97" fill="#0084C4" points="11.1881184 22.92 11.7538289 22.9045 12.3122368 22.8605 12.8599342 22.79 13.3998421 22.69 13.9329342 22.565 14.4519079 22.4125 14.9630921 22.2355 15.4601579 22.032 15.9465132 21.8065 16.4182632 21.558 16.8754079 21.288 17.3223289 20.9925 17.7502632 20.678 18.1645658 20.3455 18.5613421 19.9905 18.9425395 19.6165 19.3032895 19.224 19.6489474 18.8135 19.9731842 18.3885 20.2789211 17.948 20.5632368 17.4895 20.8271053 17.016 21.0676053 16.531 21.2876579 16.032 21.4823947 15.5175 21.6547368 14.9965 21.7993289 14.46 21.9215263 13.9165 22.0188947 13.358 22.0870526 12.7955 22.1303816 12.222 22.1445 11.641 22.1303816 11.0645 22.0870526 10.4945 22.0188947 9.936 21.9215263 9.3815 21.7993289 8.8415 21.6547368 8.309 21.4823947 7.787 21.2876579 7.2765 21.0676053 6.7815 20.8271053 6.296 20.5632368 5.826 20.2789211 5.3675 19.9731842 4.928 19.6489474 4.502 19.3032895 4.095 18.9425395 3.7035 18.5613421 3.333 18.1645658 2.978 17.7502632 2.645 17.3223289 2.3305 16.8754079 2.039 16.4182632 1.769 15.9465132 1.5165 15.4601579 1.2915 14.9630921 1.091 14.4519079 0.914 13.9329342 0.7625 13.3998421 0.6365 12.8599342 0.5365 12.3122368 0.4665 11.7538289 0.422 11.1881184 0.4075 10.6228947 0.422 10.0644868 0.4665 9.51727632 0.5365 8.97688158 0.6365 8.44427632 0.7625 7.92140789 0.914 7.41363158 1.091 6.91364474 1.2915 6.42728947 1.5165 5.95505263 1.769 5.49401316 2.039 5.05098684 2.3305 4.61867105 2.645 4.20485526 2.978 3.80467105 3.333 3.42688158 3.7035 3.06321053 4.095 2.71706579 4.502 2.38990789 4.928 2.08319737 5.3675 1.79888158 5.826 1.5355 6.296 1.29110526 6.7815 1.07105263 7.2765 0.876802632 7.787 0.703973684 8.309 0.556947368 8.8415 0.433289474 9.3815 0.336407895 9.936 0.26825 10.4945 0.224434211 11.0645 0.210802632 11.641 0.224434211 12.222 0.26825 12.7955 0.336407895 13.358 0.433289474 13.9165 0.556947368 14.46 0.703973684 14.9965 0.876802632 15.5175 1.07105263 16.032 1.29110526 16.531 1.5355 17.016 1.79888158 17.4895 2.08319737 17.948 2.38990789 18.3885 2.71706579 18.8135 3.06321053 19.224 3.42688158 19.6165 3.80467105 19.9905 4.20485526 20.3455 4.61867105 20.678 5.05098684 20.9925 5.49401316 21.288 5.95505263 21.558 6.42728947 21.8065 6.91364474 22.032 7.41363158 22.2355 7.92140789 22.4125 8.44427632 22.565 8.97688158 22.69 9.51727632 22.79 10.0644868 22.8605 10.6228947 22.9045 11.1881184 22.92"></polyline>
                            <polyline id="Fill-98" fill="#EC1C2E" points="17.1061711 4.6945 22.6634737 4.6945 22.6634737 4.066 17.6426711 4.066 17.1061711 4.6945"></polyline>
                            <polyline id="Fill-99" fill="#EC1C2E" points="16.2342368 6.026 22.6634737 6.026 22.6634737 5.401 16.6237105 5.401 16.2342368 6.026"></polyline>
                            <polyline id="Fill-100" fill="#EC1C2E" points="15.5818684 7.38 22.6634737 7.38 22.6634737 6.751 15.8817632 6.751 15.5818684 7.38"></polyline>
                            <polyline id="Fill-101" fill="#EC1C2E" points="15.1578289 8.712 22.6634737 8.712 22.6634737 8.0865 15.3452632 8.0865 15.1578289 8.712"></polyline>
                            <polyline id="Fill-102" fill="#EC1C2E" points="14.8803289 10.047 22.6634737 10.047 22.6634737 9.418 14.9918158 9.418 14.8803289 10.047"></polyline>
                            <polyline id="Fill-103" fill="#EC1C2E" points="14.8223947 12.6325 22.6634737 12.6325 22.6634737 12.0035 14.7688421 12.0035 14.8223947 12.6325"></polyline>
                            <polyline id="Fill-104" fill="#EC1C2E" points="15.0103158 14.042 22.6634737 14.042 22.6634737 13.413 14.8983421 13.413 15.0103158 14.042"></polyline>
                            <polyline id="Fill-105" fill="#EC1C2E" points="15.3812895 15.1855 22.6634737 15.1855 22.6634737 14.5565 15.1933684 14.5565 15.3812895 15.1855"></polyline>
                            <polyline id="Fill-106" fill="#EC1C2E" points="15.9353158 16.576 22.6634737 16.576 22.6634737 15.947 15.6402895 15.947 15.9353158 16.576"></polyline>
                            <polyline id="Fill-107" fill="#EC1C2E" points="16.7176711 17.985 22.6634737 17.985 22.6634737 17.3565 16.3067763 17.3565 16.7176711 17.985"></polyline>
                            <polyline id="Fill-108" fill="#EC1C2E" points="17.6967105 19.3385 22.6094342 19.3385 22.6094342 18.71 17.1602105 18.71 17.6967105 19.3385"></polyline>
                            <polyline id="Fill-114" fill="#EC1C2E" points="34.891 18.651 34.8880789 18.669 34.8983026 18.78 34.9309211 18.884 34.9844737 18.973 35.0536053 19.054 35.1329605 19.117 35.2225395 19.1655 35.3199079 19.1945 35.4245789 19.206 35.5321711 19.1945 35.6329474 19.1655 35.7230132 19.117 35.8023684 19.054 35.8671184 18.973 35.9172632 18.884 35.9503684 18.78 35.9610789 18.669 35.9610789 18.651 35.8491053 18.651 35.8491053 18.669 35.8422895 18.7655 35.8164868 18.8545 35.7775395 18.932 35.7269079 18.999 35.6655658 19.054 35.5930263 19.095 35.5102632 19.1205 35.4245789 19.128 35.3379211 19.1205 35.2546711 19.095 35.1826184 19.054 35.1183553 18.999 35.0672368 18.932 35.0282895 18.8545 35.0029737 18.7655 34.9951842 18.669 34.9951842 18.651 34.891 18.651"></polyline>
                            <polyline id="Fill-116" fill="#FFFFFF" points="23.3508947 10.6945 23.2793289 10.691 23.2072763 10.6835 23.1420395 10.672 23.0777763 10.6655 23.0130263 10.6535 22.9482763 10.6425 22.8796316 10.6315 22.8075789 10.6205 22.7321184 10.6125 22.6522763 10.6055 22.5622105 10.598 22.4648421 10.594 22.35725 10.594 22.2384605 10.598 22.1050658 10.6055 21.9614474 10.6165 21.8567763 10.6315 21.7594079 10.6535 21.6698289 10.6835 21.5904737 10.717 21.5179342 10.757 21.4531842 10.802 21.3991447 10.8535 21.3563026 10.905 21.3236842 10.9645 21.3022632 11.027 21.2910658 11.09 21.2910658 11.1565 21.3061579 11.227 21.3309868 11.297 21.3704211 11.3675 21.4205658 11.438 21.5252368 11.5345 21.6474342 11.612 21.7920263 11.6785 21.9468421 11.7335 22.1089605 11.789 22.2783816 11.845 22.4507237 11.9075 22.6167368 11.982 22.7715526 12.0705 22.9195526 12.178 23.0485658 12.315 23.1566447 12.4775 23.2394079 12.677 23.2939342 12.914 23.3124342 13.195 23.2939342 13.528 23.2540132 13.7755 23.1887763 13.9975 23.1065 14.1975 23.0013421 14.3745 22.8796316 14.53 22.7462368 14.6635 22.5982368 14.778 22.4405 14.878 22.274 14.9595 22.1016579 15.0255 21.9249342 15.0815 21.7482105 15.122 21.5724605 15.1515 21.3991447 15.17 21.2341053 15.1815 21.0715 15.1855 20.8475526 15.1855 20.6464868 15.1815 20.4629474 15.1775 20.2940132 15.174 20.1387105 15.167 20.0019079 15.159 19.8724079 15.1485 19.7570263 15.133 19.6489474 15.1185 19.5481711 15.0995 19.4537237 15.0815 19.3612237 15.0555 19.2745658 15.0295 19.1879079 15.004 19.1017368 14.9705 19.0116711 14.937 19.2346447 13.7755 19.2852763 13.787 19.3461316 13.805 19.4220789 13.8235 19.5048421 13.8455 19.6017237 13.8645 19.7098026 13.8905 19.8251842 13.912 19.9478684 13.9345 20.0773684 13.953 20.2141711 13.972 20.3553553 13.9865 20.5023816 14.001 20.6503816 14.0085 20.8017895 14.012 20.9531974 14.012 21.1075263 14.0045 21.2516316 13.979 21.3704211 13.9385 21.4604868 13.8795 21.5320526 13.813 21.5865789 13.7345 21.6260132 13.654 21.6586316 13.5725 21.6800526 13.491 21.6907632 13.406 21.6873553 13.3315 21.6698289 13.2615 21.6401316 13.2025 21.6011842 13.143 21.5505526 13.0915 21.4892105 13.043 21.4205658 12.9985 21.3451053 12.9585 21.2623421 12.9175 21.1727632 12.877 21.0783158 12.84 20.9848421 12.803 20.8845526 12.762 20.7832895 12.7215 20.6791053 12.677 20.5783289 12.6325 20.4775526 12.5845 20.3762895 12.529 20.2789211 12.47 20.1854474 12.407 20.0987895 12.3365 20.0165132 12.255 19.9410526 12.1705 19.8724079 12.074 19.8110658 11.9705 19.7604342 11.8555 19.7175921 11.7335 19.6883816 11.597 19.6703684 11.449 19.6664737 11.286 19.6776711 11.112 19.6883816 11.005 19.7029868 10.901 19.7175921 10.802 19.7385263 10.7055 19.7604342 10.6125 19.78575 10.5205 19.8183684 10.4355 19.8505 10.3505 19.8899342 10.2725 19.9298553 10.195 19.9765921 10.1245 20.0272237 10.0545 20.0812632 9.988 20.1387105 9.9245 20.1995658 9.8655 20.2677237 9.81 20.3397763 9.7585 20.4162105 9.7105 20.4984868 9.666 20.5856316 9.6215 20.6747237 9.5845 20.7720921 9.5475 20.8738421 9.518 20.9809474 9.488 21.0968158 9.4625 21.2156053 9.4405 21.3382895 9.422 21.4677895 9.407 21.6041053 9.396 21.7482105 9.389 21.8966974 9.3815 22.2418684 9.3815 22.4151842 9.3845 22.57 9.389 22.7136184 9.396 22.8401974 9.4035 22.9555789 9.411 23.0597632 9.422 23.1498289 9.4295 23.2330789 9.4405 23.3046447 9.4515 23.3732895 9.4585 23.43025 9.47 23.4813684 9.4775 23.5281053 9.4845 23.5709474 9.492 23.6108684 9.496 23.3508947 10.6945"></polyline>
                            <polyline id="Stroke-117" stroke="#FFFFFF" stroke-width="0.215" points="23.3508947 10.6945 23.3508947 10.6945 23.2793289 10.691 23.2072763 10.6835 23.1420395 10.672 23.0777763 10.6655 23.0130263 10.6535 22.9482763 10.6425 22.8796316 10.6315 22.8075789 10.6205 22.7321184 10.6125 22.6522763 10.6055 22.5622105 10.598 22.4648421 10.594 22.35725 10.594 22.2384605 10.598 22.1050658 10.6055 21.9614474 10.6165 21.8567763 10.6315 21.7594079 10.6535 21.6698289 10.6835 21.5904737 10.717 21.5179342 10.757 21.4531842 10.802 21.3991447 10.8535 21.3563026 10.905 21.3236842 10.9645 21.3022632 11.027 21.2910658 11.09 21.2910658 11.1565 21.3061579 11.227 21.3309868 11.297 21.3704211 11.3675 21.4205658 11.438 21.5252368 11.5345 21.6474342 11.612 21.7920263 11.6785 21.9468421 11.7335 22.1089605 11.789 22.2783816 11.845 22.4507237 11.9075 22.6167368 11.982 22.7715526 12.0705 22.9195526 12.178 23.0485658 12.315 23.1566447 12.4775 23.2394079 12.677 23.2939342 12.914 23.3124342 13.195 23.2939342 13.528 23.2540132 13.7755 23.1887763 13.9975 23.1065 14.1975 23.0013421 14.3745 22.8796316 14.53 22.7462368 14.6635 22.5982368 14.778 22.4405 14.878 22.274 14.9595 22.1016579 15.0255 21.9249342 15.0815 21.7482105 15.122 21.5724605 15.1515 21.3991447 15.17 21.2341053 15.1815 21.0715 15.1855 20.8475526 15.1855 20.6464868 15.1815 20.4629474 15.1775 20.2940132 15.174 20.1387105 15.167 20.0019079 15.159 19.8724079 15.1485 19.7570263 15.133 19.6489474 15.1185 19.5481711 15.0995 19.4537237 15.0815 19.3612237 15.0555 19.2745658 15.0295 19.1879079 15.004 19.1017368 14.9705 19.0116711 14.937 19.2346447 13.7755 19.2852763 13.787 19.3461316 13.805 19.4220789 13.8235 19.5048421 13.8455 19.6017237 13.8645 19.7098026 13.8905 19.8251842 13.912 19.9478684 13.9345 20.0773684 13.953 20.2141711 13.972 20.3553553 13.9865 20.5023816 14.001 20.6503816 14.0085 20.8017895 14.012 20.9531974 14.012 21.1075263 14.0045 21.2516316 13.979 21.3704211 13.9385 21.4604868 13.8795 21.5320526 13.813 21.5865789 13.7345 21.6260132 13.654 21.6586316 13.5725 21.6800526 13.491 21.6907632 13.406 21.6873553 13.3315 21.6698289 13.2615 21.6401316 13.2025 21.6011842 13.143 21.5505526 13.0915 21.4892105 13.043 21.4205658 12.9985 21.3451053 12.9585 21.2623421 12.9175 21.1727632 12.877 21.0783158 12.84 20.9848421 12.803 20.8845526 12.762 20.7832895 12.7215 20.6791053 12.677 20.5783289 12.6325 20.4775526 12.5845 20.3762895 12.529 20.2789211 12.47 20.1854474 12.407 20.0987895 12.3365 20.0165132 12.255 19.9410526 12.1705 19.8724079 12.074 19.8110658 11.9705 19.7604342 11.8555 19.7175921 11.7335 19.6883816 11.597 19.6703684 11.449 19.6664737 11.286 19.6776711 11.112 19.6883816 11.005 19.7029868 10.901 19.7175921 10.802 19.7385263 10.7055 19.7604342 10.6125 19.78575 10.5205 19.8183684 10.4355 19.8505 10.3505 19.8899342 10.2725 19.9298553 10.195 19.9765921 10.1245 20.0272237 10.0545 20.0812632 9.988 20.1387105 9.9245 20.1995658 9.8655 20.2677237 9.81 20.3397763 9.7585 20.4162105 9.7105 20.4984868 9.666 20.5856316 9.6215 20.6747237 9.5845 20.7720921 9.5475 20.8738421 9.518 20.9809474 9.488 21.0968158 9.4625 21.2156053 9.4405 21.3382895 9.422 21.4677895 9.407 21.6041053 9.396 21.7482105 9.389 21.8966974 9.3815 22.2418684 9.3815 22.4151842 9.3845 22.57 9.389 22.7136184 9.396 22.8401974 9.4035 22.9555789 9.411 23.0597632 9.422 23.1498289 9.4295 23.2330789 9.4405 23.3046447 9.4515 23.3732895 9.4585 23.43025 9.47 23.4813684 9.4775 23.5281053 9.4845 23.5709474 9.492 23.6108684 9.496 23.3508947 10.6945"></polyline>
                            <polyline id="Fill-118" fill="#FFFFFF" points="24.5358684 8.2195 25.9842237 8.2195 25.7607632 9.515 26.6507105 9.515 26.4486711 10.6945 25.5377895 10.6755 25.0587368 13.624 25.0514342 13.6865 25.0514342 13.742 25.0587368 13.7905 25.0733421 13.835 25.0947632 13.872 25.1191053 13.909 25.1522105 13.9385 25.1882368 13.96 25.2315658 13.983 25.2753816 14.001 25.3250395 14.016 25.3756711 14.024 25.4336053 14.035 25.4910526 14.038 25.5519079 14.042 25.7286316 14.042 25.8294079 14.035 25.9228816 14.02 26.0027237 14.001 26.0635789 13.983 26.1108026 13.964 26.1390395 13.949 26.14975 13.946 26.0027237 14.9555 25.9666974 14.978 25.9267763 14.9965 25.8873421 15.015 25.8469342 15.0335 25.8079868 15.048 25.7636842 15.063 25.7213289 15.0775 25.6711842 15.0925 25.6200658 15.107 25.5660263 15.1185 25.5051711 15.1295 25.4404211 15.14 25.3717763 15.1515 25.3002105 15.1625 25.2169605 15.174 25.1307895 15.1855 24.7413158 15.1855 24.5358684 15.17 24.3523289 15.1485 24.1906974 15.1185 24.05 15.0775 23.9307237 15.0335 23.8304342 14.978 23.7476711 14.9155 23.6795132 14.8445 23.6249868 14.7665 23.5850658 14.6815 23.5602368 14.589 23.5461184 14.486 23.5422237 14.379 23.5461184 14.2605 23.5563421 14.138 23.5748421 14.0045 24.5358684 8.2195"></polyline>
                            <polyline id="Stroke-119" stroke="#FFFFFF" stroke-width="0.215" points="24.5358684 8.2195 25.9842237 8.2195 25.7607632 9.515 26.6507105 9.515 26.4486711 10.6945 25.5377895 10.6755 25.0587368 13.624 25.0514342 13.6865 25.0514342 13.742 25.0587368 13.7905 25.0733421 13.835 25.0947632 13.872 25.1191053 13.909 25.1522105 13.9385 25.1882368 13.96 25.2315658 13.983 25.2753816 14.001 25.3250395 14.016 25.3756711 14.024 25.4336053 14.035 25.4910526 14.038 25.5519079 14.042 25.7286316 14.042 25.8294079 14.035 25.9228816 14.02 26.0027237 14.001 26.0635789 13.983 26.1108026 13.964 26.1390395 13.949 26.14975 13.946 26.0027237 14.9555 25.9666974 14.978 25.9267763 14.9965 25.8873421 15.015 25.8469342 15.0335 25.8079868 15.048 25.7636842 15.063 25.7213289 15.0775 25.6711842 15.0925 25.6200658 15.107 25.5660263 15.1185 25.5051711 15.1295 25.4404211 15.14 25.3717763 15.1515 25.3002105 15.1625 25.2169605 15.174 25.1307895 15.1855 24.7413158 15.1855 24.5358684 15.17 24.3523289 15.1485 24.1906974 15.1185 24.05 15.0775 23.9307237 15.0335 23.8304342 14.978 23.7476711 14.9155 23.6795132 14.8445 23.6249868 14.7665 23.5850658 14.6815 23.5602368 14.589 23.5461184 14.486 23.5422237 14.379 23.5461184 14.2605 23.5563421 14.138 23.5748421 14.0045 24.5358684 8.2195"></polyline>
                            <polyline id="Fill-120" fill="#FFFFFF" points="15.7337632 12.71 15.7152632 12.803 15.7123421 12.8955 15.7196447 12.995 15.7410658 13.0915 15.7697895 13.1915 15.8131184 13.291 15.8632632 13.387 15.9246053 13.4795 15.99325 13.5685 16.0726053 13.654 16.1548816 13.728 16.2454342 13.798 16.3418289 13.857 16.4430921 13.9055 16.5516579 13.942 16.6587632 13.968 16.7892368 13.9865 16.9187368 14.0045 17.0516447 14.02 17.1850395 14.027 17.3223289 14.0305 17.4552368 14.0305 17.5964211 14.024 17.7327368 14.012 17.8729474 13.9905 18.0170526 13.964 18.1611579 13.927 18.3052632 13.8795 18.4493684 13.8235 18.6012632 13.7575 18.7482895 13.676 18.9001842 13.587 18.6767237 14.9005 18.5934737 14.9445 18.5102237 14.985 18.4347632 15.019 18.3558947 15.048 18.2765395 15.0775 18.1971842 15.0995 18.1144211 15.1185 18.0243553 15.137 17.9313684 15.1485 17.8296184 15.159 17.7186184 15.17 17.5998289 15.174 17.4698421 15.1815 17.32525 15.1815 17.1670263 15.1855 16.8685921 15.1855 16.7386053 15.1775 16.6125132 15.17 16.4830132 15.1555 16.3501053 15.137 16.2201184 15.1145 16.0901316 15.0855 15.9611184 15.0555 15.8345395 15.015 15.7089342 14.974 15.58625 14.926 15.4635658 14.871 15.3452632 14.8075 15.2293947 14.741 15.1218026 14.667 15.0132368 14.586 14.9129474 14.497 14.8155789 14.401 14.7216184 14.297 14.6388553 14.186 14.5595 14.064 14.4879342 13.9385 14.4226974 13.802 14.36525 13.657 14.3146184 13.5025 14.2751842 13.339 14.2425658 13.169 14.2211447 12.984 14.2075132 12.7915 14.2075132 12.592 14.2138421 12.378 14.2318553 12.155 14.2425658 12.078 14.2532763 11.989 14.2683684 11.9 14.2858947 11.8045 14.3034211 11.704 14.3292237 11.6005 14.3584342 11.4935 14.3866711 11.3825 14.4226974 11.2675 14.4621316 11.1565 14.5093553 11.042 14.5595 10.9275 14.6169474 10.8125 14.6782895 10.698 14.7469342 10.584 14.8185 10.4725 14.90175 10.3655 14.9879211 10.258 15.0818816 10.154 15.1860658 10.058 15.2941447 9.962 15.4134211 9.8735 15.5395132 9.7915 15.6763158 9.714 15.8199342 9.6475 15.97475 9.5845 16.1368684 9.529 16.3092105 9.4845 16.4937237 9.448 16.6879737 9.422 16.8900132 9.407 17.1061711 9.3995 17.2074342 9.3995 17.3077237 9.407 17.4123947 9.4145 17.5165789 9.4255 17.6202763 9.4405 17.7293289 9.4625 17.8335132 9.488 17.9381842 9.518 18.0418816 9.551 18.1470395 9.592 18.2478158 9.636 18.3451842 9.6885 18.4391447 9.7475 18.5326184 9.81 18.6183026 9.8845 18.7054474 9.962 18.7843158 10.047 18.8597763 10.14 18.9284211 10.243 18.9897632 10.3505 19.0476974 10.4685 19.0978421 10.594 19.1406842 10.7315 19.1728158 10.876 19.2020263 11.0315 19.2200395 11.193 19.2278289 11.3675 19.2278289 11.5525 19.2166316 11.7485 19.1991053 11.9555 19.1664868 12.174 19.1226711 12.4035 19.0657105 12.729 15.3238421 12.729 15.5468158 11.7005 17.7906711 11.7005 17.8013816 11.56 17.8013816 11.4305 17.7940789 11.3085 17.7726579 11.197 17.7439342 11.098 17.7074211 11.005 17.6606842 10.9235 17.6066447 10.8495 17.5453026 10.783 17.4766579 10.728 17.4046053 10.6835 17.3291447 10.646 17.2463816 10.6165 17.1602105 10.594 17.0701447 10.584 16.9761842 10.5795 16.8754079 10.5795 16.7819342 10.594 16.6879737 10.6125 16.6018026 10.6425 16.5190395 10.6835 16.4396842 10.7315 16.3642237 10.7865 16.2955789 10.8495 16.2308289 10.9235 16.1733816 11.0015 16.1188553 11.0865 16.0687105 11.179 16.0258684 11.275 15.9898421 11.3785 15.9611184 11.49 15.9353158 11.6045 15.7337632 12.71"></polyline>
                            <polyline id="Stroke-121" stroke="#FFFFFF" stroke-width="0.215" points="15.7337632 12.71 15.7337632 12.71 15.7152632 12.803 15.7123421 12.8955 15.7196447 12.995 15.7410658 13.0915 15.7697895 13.1915 15.8131184 13.291 15.8632632 13.387 15.9246053 13.4795 15.99325 13.5685 16.0726053 13.654 16.1548816 13.728 16.2454342 13.798 16.3418289 13.857 16.4430921 13.9055 16.5516579 13.942 16.6587632 13.968 16.7892368 13.9865 16.9187368 14.0045 17.0516447 14.02 17.1850395 14.027 17.3223289 14.0305 17.4552368 14.0305 17.5964211 14.024 17.7327368 14.012 17.8729474 13.9905 18.0170526 13.964 18.1611579 13.927 18.3052632 13.8795 18.4493684 13.8235 18.6012632 13.7575 18.7482895 13.676 18.9001842 13.587 18.6767237 14.9005 18.5934737 14.9445 18.5102237 14.985 18.4347632 15.019 18.3558947 15.048 18.2765395 15.0775 18.1971842 15.0995 18.1144211 15.1185 18.0243553 15.137 17.9313684 15.1485 17.8296184 15.159 17.7186184 15.17 17.5998289 15.174 17.4698421 15.1815 17.32525 15.1815 17.1670263 15.1855 16.8685921 15.1855 16.7386053 15.1775 16.6125132 15.17 16.4830132 15.1555 16.3501053 15.137 16.2201184 15.1145 16.0901316 15.0855 15.9611184 15.0555 15.8345395 15.015 15.7089342 14.974 15.58625 14.926 15.4635658 14.871 15.3452632 14.8075 15.2293947 14.741 15.1218026 14.667 15.0132368 14.586 14.9129474 14.497 14.8155789 14.401 14.7216184 14.297 14.6388553 14.186 14.5595 14.064 14.4879342 13.9385 14.4226974 13.802 14.36525 13.657 14.3146184 13.5025 14.2751842 13.339 14.2425658 13.169 14.2211447 12.984 14.2075132 12.7915 14.2075132 12.592 14.2138421 12.378 14.2318553 12.155 14.2425658 12.078 14.2532763 11.989 14.2683684 11.9 14.2858947 11.8045 14.3034211 11.704 14.3292237 11.6005 14.3584342 11.4935 14.3866711 11.3825 14.4226974 11.2675 14.4621316 11.1565 14.5093553 11.042 14.5595 10.9275 14.6169474 10.8125 14.6782895 10.698 14.7469342 10.584 14.8185 10.4725 14.90175 10.3655 14.9879211 10.258 15.0818816 10.154 15.1860658 10.058 15.2941447 9.962 15.4134211 9.8735 15.5395132 9.7915 15.6763158 9.714 15.8199342 9.6475 15.97475 9.5845 16.1368684 9.529 16.3092105 9.4845 16.4937237 9.448 16.6879737 9.422 16.8900132 9.407 17.1061711 9.3995 17.2074342 9.3995 17.3077237 9.407 17.4123947 9.4145 17.5165789 9.4255 17.6202763 9.4405 17.7293289 9.4625 17.8335132 9.488 17.9381842 9.518 18.0418816 9.551 18.1470395 9.592 18.2478158 9.636 18.3451842 9.6885 18.4391447 9.7475 18.5326184 9.81 18.6183026 9.8845 18.7054474 9.962 18.7843158 10.047 18.8597763 10.14 18.9284211 10.243 18.9897632 10.3505 19.0476974 10.4685 19.0978421 10.594 19.1406842 10.7315 19.1728158 10.876 19.2020263 11.0315 19.2200395 11.193 19.2278289 11.3675 19.2278289 11.5525 19.2166316 11.7485 19.1991053 11.9555 19.1664868 12.174 19.1226711 12.4035 19.0657105 12.729 15.3238421 12.729 15.5468158 11.7005 17.7906711 11.7005 17.8013816 11.56 17.8013816 11.4305 17.7940789 11.3085 17.7726579 11.197 17.7439342 11.098 17.7074211 11.005 17.6606842 10.9235 17.6066447 10.8495 17.5453026 10.783 17.4766579 10.728 17.4046053 10.6835 17.3291447 10.646 17.2463816 10.6165 17.1602105 10.594 17.0701447 10.584 16.9761842 10.5795 16.8754079 10.5795 16.7819342 10.594 16.6879737 10.6125 16.6018026 10.6425 16.5190395 10.6835 16.4396842 10.7315 16.3642237 10.7865 16.2955789 10.8495 16.2308289 10.9235 16.1733816 11.0015 16.1188553 11.0865 16.0687105 11.179 16.0258684 11.275 15.9898421 11.3785 15.9611184 11.49 15.9353158 11.6045 15.7337632 12.71"></polyline>
                            <polyline id="Fill-122" fill="#FFFFFF" points="13.7318684 14.0045 13.5259342 15.1855 12.2260658 15.1855 12.2406711 15.074 12.2543026 14.963 12.2689079 14.8635 12.2830263 14.7705 12.2976316 14.6925 12.3083421 14.6265 12.3229474 14.582 12.3375526 14.5565 12.2689079 14.6375 12.18225 14.7185 12.0858553 14.797 11.9738816 14.871 11.8550921 14.941 11.7251053 15.0075 11.5883026 15.067 11.4476053 15.122 11.3000921 15.17 11.1491711 15.2115 10.9972763 15.24 10.8468421 15.2625 10.6949474 15.274 10.5474342 15.2775 10.4033289 15.267 10.2631184 15.244 10.0790921 15.2 9.91746053 15.14 9.76994737 15.07 9.63996053 14.9925 9.52506579 14.9075 9.42721053 14.8115 9.34103947 14.7115 9.26898684 14.601 9.20764474 14.49 9.1575 14.3745 9.11757895 14.256 9.08496053 14.1345 9.06402632 14.016 9.04844737 13.894 9.04211842 13.7755 9.03773684 13.661 9.05282895 13.454 9.08496053 13.258 9.13218421 13.0685 9.20034211 12.8915 9.28310526 12.7255 9.37657895 12.57 9.48855263 12.4255 9.60734211 12.2885 9.74122368 12.1665 9.88094737 12.0595 10.0323553 11.96 10.1910658 11.874 10.3565921 11.8005 10.5260132 11.741 10.6983553 11.697 10.8750789 11.6635 10.8823816 11.6635 10.9076974 11.66 10.9471316 11.6555 11.0006842 11.6485 11.0625132 11.641 11.1345658 11.634 11.2144079 11.6225 11.3000921 11.616 11.38675 11.608 11.4734079 11.597 11.5629868 11.589 11.6496447 11.582 11.7285132 11.5745 11.8039737 11.571 11.8731053 11.5675 12.1145789 11.5675 12.1793289 11.571 12.2406711 11.571 12.2976316 11.5745 12.4130132 11.5745 12.4636447 11.5785 12.5103816 11.5785 12.5503026 11.582 12.5863289 11.582 12.6145658 11.586 12.6544868 11.586 12.6656842 11.549 12.6900263 11.4605 12.7090132 11.356 12.7090132 11.2645 12.7012237 11.197 12.6900263 11.1345 12.6720132 11.075 12.6471842 11.02 12.6184605 10.968 12.5824342 10.9205 12.5464079 10.876 12.5030789 10.831 12.4563421 10.7945 12.4091184 10.7645 12.3545921 10.735 12.3015263 10.709 12.2440789 10.691 12.18225 10.6755 12.1209079 10.6655 12.0595658 10.6575 11.9125395 10.6535 11.7572368 10.6575 11.5946316 10.661 11.4300789 10.672 11.2640658 10.6835 11.0985395 10.698 10.9330132 10.717 10.7708947 10.735 10.6160789 10.7605 10.4685658 10.783 10.3351711 10.809 10.2090789 10.8385 10.0971053 10.868 10.0031447 10.8975 9.92719737 10.9275 9.87413158 10.9605 10.2446184 9.703 10.3526974 9.6515 10.4685658 9.6035 10.5829737 9.5625 10.7056579 9.529 10.8322368 9.503 10.9617368 9.481 11.0985395 9.4625 11.23875 9.448 11.3833421 9.4405 11.5308553 9.433 11.6817763 9.4295 12.1715395 9.4295 12.3448553 9.433 12.5249868 9.437 12.6720132 9.4515 12.8278026 9.4735 12.9889474 9.515 13.1510658 9.5625 13.3136711 9.625 13.4762763 9.703 13.6267105 9.7915 13.7708158 9.8955 13.9042105 10.0135 14.023 10.143 14.1242632 10.2875 14.2031316 10.446 14.2605789 10.6205 14.2931974 10.809 14.2970921 11.0085 14.2683684 11.227 13.7318684 14.0045"></polyline>
                            <polyline id="Stroke-123" stroke="#FFFFFF" stroke-width="0.215" points="13.7318684 14.0045 13.5259342 15.1855 12.2260658 15.1855 12.2406711 15.074 12.2543026 14.963 12.2689079 14.8635 12.2830263 14.7705 12.2976316 14.6925 12.3083421 14.6265 12.3229474 14.582 12.3375526 14.5565 12.2689079 14.6375 12.18225 14.7185 12.0858553 14.797 11.9738816 14.871 11.8550921 14.941 11.7251053 15.0075 11.5883026 15.067 11.4476053 15.122 11.3000921 15.17 11.1491711 15.2115 10.9972763 15.24 10.8468421 15.2625 10.6949474 15.274 10.5474342 15.2775 10.4033289 15.267 10.2631184 15.244 10.0790921 15.2 9.91746053 15.14 9.76994737 15.07 9.63996053 14.9925 9.52506579 14.9075 9.42721053 14.8115 9.34103947 14.7115 9.26898684 14.601 9.20764474 14.49 9.1575 14.3745 9.11757895 14.256 9.08496053 14.1345 9.06402632 14.016 9.04844737 13.894 9.04211842 13.7755 9.03773684 13.661 9.05282895 13.454 9.08496053 13.258 9.13218421 13.0685 9.20034211 12.8915 9.28310526 12.7255 9.37657895 12.57 9.48855263 12.4255 9.60734211 12.2885 9.74122368 12.1665 9.88094737 12.0595 10.0323553 11.96 10.1910658 11.874 10.3565921 11.8005 10.5260132 11.741 10.6983553 11.697 10.8750789 11.6635 10.8823816 11.6635 10.9076974 11.66 10.9471316 11.6555 11.0006842 11.6485 11.0625132 11.641 11.1345658 11.634 11.2144079 11.6225 11.3000921 11.616 11.38675 11.608 11.4734079 11.597 11.5629868 11.589 11.6496447 11.582 11.7285132 11.5745 11.8039737 11.571 11.8731053 11.5675 12.1145789 11.5675 12.1793289 11.571 12.2406711 11.571 12.2976316 11.5745 12.4130132 11.5745 12.4636447 11.5785 12.5103816 11.5785 12.5503026 11.582 12.5863289 11.582 12.6145658 11.586 12.6544868 11.586 12.6656842 11.549 12.6900263 11.4605 12.7090132 11.356 12.7090132 11.2645 12.7012237 11.197 12.6900263 11.1345 12.6720132 11.075 12.6471842 11.02 12.6184605 10.968 12.5824342 10.9205 12.5464079 10.876 12.5030789 10.831 12.4563421 10.7945 12.4091184 10.7645 12.3545921 10.735 12.3015263 10.709 12.2440789 10.691 12.18225 10.6755 12.1209079 10.6655 12.0595658 10.6575 11.9125395 10.6535 11.7572368 10.6575 11.5946316 10.661 11.4300789 10.672 11.2640658 10.6835 11.0985395 10.698 10.9330132 10.717 10.7708947 10.735 10.6160789 10.7605 10.4685658 10.783 10.3351711 10.809 10.2090789 10.8385 10.0971053 10.868 10.0031447 10.8975 9.92719737 10.9275 9.87413158 10.9605 10.2446184 9.703 10.3526974 9.6515 10.4685658 9.6035 10.5829737 9.5625 10.7056579 9.529 10.8322368 9.503 10.9617368 9.481 11.0985395 9.4625 11.23875 9.448 11.3833421 9.4405 11.5308553 9.433 11.6817763 9.4295 12.1715395 9.4295 12.3448553 9.433 12.5249868 9.437 12.6720132 9.4515 12.8278026 9.4735 12.9889474 9.515 13.1510658 9.5625 13.3136711 9.625 13.4762763 9.703 13.6267105 9.7915 13.7708158 9.8955 13.9042105 10.0135 14.023 10.143 14.1242632 10.2875 14.2031316 10.446 14.2605789 10.6205 14.2931974 10.809 14.2970921 11.0085 14.2683684 11.227 13.7318684 14.0045"></polyline>
                            <polyline id="Fill-124" fill="#0084C4" points="12.4884737 12.614 12.4850658 12.5845 12.4636447 12.562 12.4271316 12.544 12.3808816 12.533 12.3195395 12.5255 12.2543026 12.5215 12.0999737 12.5215 12.0172105 12.529 11.9305526 12.54 11.8477895 12.551 11.7650263 12.5665 11.6856711 12.5805 11.6097237 12.5955 11.5454605 12.614 11.4875263 12.6325 11.4549079 12.64 11.4115789 12.6545 11.3585132 12.6735 11.3000921 12.699 11.23875 12.7255 11.1701053 12.7585 11.1019474 12.799 11.0337895 12.84 10.9651447 12.8915 10.9003947 12.9475 10.8385658 13.006 10.7855 13.0735 10.7343816 13.143 10.6983553 13.2215 10.6701184 13.306 10.6516184 13.3945 10.6448026 13.576 10.6701184 13.7165 10.7129605 13.8275 10.7777105 13.909 10.8570658 13.964 10.9398289 14.001 11.0298947 14.02 11.1165526 14.024 11.2752632 14.02 11.4159605 14.0045 11.5488684 13.979 11.6676579 13.946 11.7757368 13.909 11.8731053 13.8645 11.9587895 13.813 12.0347368 13.7575 12.1028947 13.702 12.1608289 13.639 12.2114605 13.5795 12.2543026 13.517 12.2908158 13.454 12.3195395 13.3945 12.3414474 13.336 12.3589737 13.28 12.3774737 13.1985 12.395 13.113 12.4130132 13.0245 12.4315132 12.932 12.4451447 12.8435 12.4602368 12.762 12.4743553 12.6845 12.4884737 12.614"></polyline>
                            <polyline id="Fill-125" fill="#FFFFFF" points="2.86165789 15.1855 1.45273684 15.1855 2.63771053 8.2195 5.08701316 8.2195 5.32848684 12.3665 6.99592105 8.2195 9.53918421 8.2195 8.35080263 15.1855 6.94236842 15.1855 7.83134211 9.969 7.77730263 9.969 5.68144737 15.1855 4.10407895 15.1855 4.08947368 14.9665 4.05685526 14.386 3.95607895 12.622 3.90252632 11.6705 3.85578947 10.831 3.82268421 10.2245 3.80856579 9.969 3.73651316 9.969 3.75111842 9.969 2.86165789 15.1855"></polyline>
                            <polyline id="Stroke-126" stroke="#FFFFFF" stroke-width="0.215" points="2.86165789 15.1855 1.45273684 15.1855 2.63771053 8.2195 5.08701316 8.2195 5.32848684 12.3665 6.99592105 8.2195 9.53918421 8.2195 8.35080263 15.1855 6.94236842 15.1855 7.83134211 9.969 7.77730263 9.969 5.68144737 15.1855 4.10407895 15.1855 4.08947368 14.9665 4.05685526 14.386 3.95607895 12.622 3.90252632 11.6705 3.85578947 10.831 3.82268421 10.2245 3.80856579 9.969 3.73651316 9.969 3.75111842 9.969 2.86165789 15.1855"></polyline>
                            <polyline id="Fill-127" fill="#FFFFFF" points="26.3917105 15.1855 27.8575921 15.1855 28.3580658 12.178 28.3794868 12.0595 28.4048026 11.9445 28.4335263 11.83 28.4695526 11.723 28.5089868 11.616 28.5596184 11.5155 28.6204737 11.4195 28.6891184 11.3275 28.7723684 11.245 28.8653553 11.171 28.9773289 11.105 29.0995263 11.0455 29.2441184 10.9975 29.40575 10.9605 29.5858816 10.9385 29.7874342 10.9235 29.8054474 10.9235 29.8273553 10.9275 29.8565658 10.931 29.8848026 10.931 29.9106053 10.9345 29.9315395 10.9385 29.9461447 10.942 29.9534474 10.942 29.9573421 10.9205 29.9714605 10.857 29.9899605 10.7605 30.0181974 10.639 30.0542237 10.5025 30.0936579 10.354 30.1408816 10.206 30.1944342 10.066 30.2343553 9.962 30.2810921 9.862 30.3278289 9.7625 30.3784605 9.67 30.4217895 9.592 30.4578158 9.529 30.4826447 9.488 30.4904342 9.4735 30.4826447 9.4735 30.4646316 9.466 30.4398026 9.4625 30.4032895 9.455 30.3672632 9.448 30.3239342 9.444 30.2849868 9.437 30.2489605 9.437 30.09025 9.448 29.9461447 9.466 29.8132368 9.496 29.6900658 9.529 29.5751711 9.573 29.4709868 9.6215 29.3702105 9.6805 29.2801447 9.744 29.1895921 9.8145 29.1068289 9.8915 29.0313684 9.973 28.9515263 10.0615 28.8765526 10.154 28.8045 10.2545 28.7285526 10.358 28.6535789 10.465 28.8225132 9.515 27.3566316 9.496 26.3917105 15.1855"></polyline>
                            <polyline id="Stroke-128" stroke="#FFFFFF" stroke-width="0.215" points="26.3917105 15.1855 27.8575921 15.1855 28.3580658 12.178 28.3794868 12.0595 28.4048026 11.9445 28.4335263 11.83 28.4695526 11.723 28.5089868 11.616 28.5596184 11.5155 28.6204737 11.4195 28.6891184 11.3275 28.7723684 11.245 28.8653553 11.171 28.9773289 11.105 29.0995263 11.0455 29.2441184 10.9975 29.40575 10.9605 29.5858816 10.9385 29.7874342 10.9235 29.8054474 10.9235 29.8273553 10.9275 29.8565658 10.931 29.8848026 10.931 29.9106053 10.9345 29.9315395 10.9385 29.9461447 10.942 29.9534474 10.942 29.9573421 10.9205 29.9714605 10.857 29.9899605 10.7605 30.0181974 10.639 30.0542237 10.5025 30.0936579 10.354 30.1408816 10.206 30.1944342 10.066 30.2343553 9.962 30.2810921 9.862 30.3278289 9.7625 30.3784605 9.67 30.4217895 9.592 30.4578158 9.529 30.4826447 9.488 30.4904342 9.4735 30.4826447 9.4735 30.4646316 9.466 30.4398026 9.4625 30.4032895 9.455 30.3672632 9.448 30.3239342 9.444 30.2849868 9.437 30.2489605 9.437 30.09025 9.448 29.9461447 9.466 29.8132368 9.496 29.6900658 9.529 29.5751711 9.573 29.4709868 9.6215 29.3702105 9.6805 29.2801447 9.744 29.1895921 9.8145 29.1068289 9.8915 29.0313684 9.973 28.9515263 10.0615 28.8765526 10.154 28.8045 10.2545 28.7285526 10.358 28.6535789 10.465 28.8225132 9.515 27.3566316 9.496 26.3917105 15.1855"></polyline>
                            <polyline id="Fill-129" fill="#FFFFFF" points="32.7338026 9.437 32.8959211 9.4405 33.0546316 9.4515 33.2094474 9.466 33.3608553 9.488 33.5049605 9.518 33.6446842 9.555 33.7785658 9.596 33.9109868 9.6435 34.0375658 9.699 34.1563553 9.7585 34.2751447 9.8215 34.3832237 9.8915 34.4917895 9.969 34.5920789 10.0505 34.6865263 10.136 34.7761053 10.2285 34.8622763 10.3245 34.9411447 10.428 35.0141711 10.532 35.0823289 10.6425 35.1465921 10.757 35.2011184 10.8795 35.2546711 11.0015 35.2984868 11.1305 35.3379211 11.2605 35.3700526 11.3975 35.3987763 11.538 35.4211711 11.682 35.4348026 11.826 35.4425921 11.978 35.446 12.1335 35.4425921 12.2885 35.4313947 12.4775 35.4099737 12.659 35.3846579 12.8325 35.3520395 13.0025 35.3165 13.1655 35.2692763 13.3205 35.2191316 13.4725 35.1650921 13.616 35.0998553 13.7535 35.0355921 13.8865 34.9591579 14.012 34.8841842 14.1305 34.8009342 14.2455 34.7108684 14.3525 34.6173947 14.4525 34.5205132 14.549 34.41925 14.6375 34.3150658 14.723 34.2035789 14.8 34.0916053 14.871 33.9728158 14.937 33.8496447 14.9965 33.7279342 15.052 33.5979474 15.0995 33.4689342 15.144 33.3316447 15.1815 33.1948421 15.2115 33.0575526 15.237 32.9139342 15.2555 32.7703158 15.27 32.6223158 15.2775 32.4743158 15.281 32.3263158 15.2775 32.1788026 15.27 32.0385921 15.2555 31.8983816 15.233 31.7615789 15.207 31.6242895 15.1775 31.4947895 15.14 31.3691842 15.0965 31.2426053 15.048 31.1238158 14.9925 31.0089211 14.9335 30.8969474 14.867 30.7893553 14.797 30.6880921 14.7185 30.5873158 14.6375 30.4938421 14.549 30.4071842 14.456 30.3205263 14.3565 30.2445789 14.253 30.1696053 14.142 30.1043684 14.027 30.0396184 13.9055 29.9860658 13.779 29.9349474 13.65 29.8921053 13.513 29.8521842 13.369 29.8200526 13.2215 29.7952237 13.0685 29.7772105 12.9105 29.7665 12.747 29.7630921 12.5775 29.7665 12.4035 29.7772105 12.226 29.7952237 12.0555 29.8200526 11.889 29.8521842 11.73 29.8886974 11.5745 29.9315395 11.4225 29.9782763 11.2785 30.0323158 11.1385 30.09025 11.0015 30.1545132 10.872 30.2265658 10.7495 30.303 10.628 30.3823553 10.517 30.4680395 10.406 30.5585921 10.3055 30.6520658 10.206 30.7528421 10.1135 30.8575132 10.0285 30.9651053 9.9475 31.0770789 9.8735 31.1953816 9.8065 31.3185526 9.7405 31.4441579 9.6845 31.5707368 9.6325 31.7041316 9.589 31.8399605 9.5475 31.9811447 9.515 32.12525 9.4845 32.2727632 9.466 32.4236842 9.448 32.5789868 9.4405 32.7338026 9.437"></polyline>
                            <polyline id="Stroke-130" stroke="#FFFFFF" stroke-width="0.215" points="32.7338026 9.437 32.7338026 9.437 32.8959211 9.4405 33.0546316 9.4515 33.2094474 9.466 33.3608553 9.488 33.5049605 9.518 33.6446842 9.555 33.7785658 9.596 33.9109868 9.6435 34.0375658 9.699 34.1563553 9.7585 34.2751447 9.8215 34.3832237 9.8915 34.4917895 9.969 34.5920789 10.0505 34.6865263 10.136 34.7761053 10.2285 34.8622763 10.3245 34.9411447 10.428 35.0141711 10.532 35.0823289 10.6425 35.1465921 10.757 35.2011184 10.8795 35.2546711 11.0015 35.2984868 11.1305 35.3379211 11.2605 35.3700526 11.3975 35.3987763 11.538 35.4211711 11.682 35.4348026 11.826 35.4425921 11.978 35.446 12.1335 35.4425921 12.2885 35.4313947 12.4775 35.4099737 12.659 35.3846579 12.8325 35.3520395 13.0025 35.3165 13.1655 35.2692763 13.3205 35.2191316 13.4725 35.1650921 13.616 35.0998553 13.7535 35.0355921 13.8865 34.9591579 14.012 34.8841842 14.1305 34.8009342 14.2455 34.7108684 14.3525 34.6173947 14.4525 34.5205132 14.549 34.41925 14.6375 34.3150658 14.723 34.2035789 14.8 34.0916053 14.871 33.9728158 14.937 33.8496447 14.9965 33.7279342 15.052 33.5979474 15.0995 33.4689342 15.144 33.3316447 15.1815 33.1948421 15.2115 33.0575526 15.237 32.9139342 15.2555 32.7703158 15.27 32.6223158 15.2775 32.4743158 15.281 32.3263158 15.2775 32.1788026 15.27 32.0385921 15.2555 31.8983816 15.233 31.7615789 15.207 31.6242895 15.1775 31.4947895 15.14 31.3691842 15.0965 31.2426053 15.048 31.1238158 14.9925 31.0089211 14.9335 30.8969474 14.867 30.7893553 14.797 30.6880921 14.7185 30.5873158 14.6375 30.4938421 14.549 30.4071842 14.456 30.3205263 14.3565 30.2445789 14.253 30.1696053 14.142 30.1043684 14.027 30.0396184 13.9055 29.9860658 13.779 29.9349474 13.65 29.8921053 13.513 29.8521842 13.369 29.8200526 13.2215 29.7952237 13.0685 29.7772105 12.9105 29.7665 12.747 29.7630921 12.5775 29.7665 12.4035 29.7772105 12.226 29.7952237 12.0555 29.8200526 11.889 29.8521842 11.73 29.8886974 11.5745 29.9315395 11.4225 29.9782763 11.2785 30.0323158 11.1385 30.09025 11.0015 30.1545132 10.872 30.2265658 10.7495 30.303 10.628 30.3823553 10.517 30.4680395 10.406 30.5585921 10.3055 30.6520658 10.206 30.7528421 10.1135 30.8575132 10.0285 30.9651053 9.9475 31.0770789 9.8735 31.1953816 9.8065 31.3185526 9.7405 31.4441579 9.6845 31.5707368 9.6325 31.7041316 9.589 31.8399605 9.5475 31.9811447 9.515 32.12525 9.4845 32.2727632 9.466 32.4236842 9.448 32.5789868 9.4405 32.7338026 9.437"></polyline>
                            <polyline id="Fill-133" fill="#FFFFFF" points="35.3671316 14.9005 35.4961447 14.9005 35.6480395 15.222 35.7950658 14.9005 35.9250526 14.9005 35.9250526 15.318 35.8310921 15.318 35.8310921 14.9965 35.6835789 15.318 35.6081184 15.318 35.4596316 14.9965 35.4596316 15.318 35.3671316 15.318 35.3671316 14.9005"></polyline>
                            <polyline id="Stroke-134" stroke="#FFFFFF" stroke-width="0.215" points="35.3671316 14.9005 35.4961447 14.9005 35.6480395 15.222 35.7950658 14.9005 35.9250526 14.9005 35.9250526 15.318 35.8310921 15.318 35.8310921 14.9965 35.6835789 15.318 35.6081184 15.318 35.4596316 14.9965 35.4596316 15.318 35.3671316 15.318 35.3671316 14.9005"></polyline>
                            <polyline id="Fill-135" fill="#EC1C2E" points="31.5848553 12.155 31.5634342 12.3625 31.5522368 12.555 31.5522368 12.729 31.5634342 12.8915 31.5848553 13.0395 31.6165 13.169 31.6573947 13.2875 31.7070526 13.3945 31.7683947 13.4865 31.8370395 13.5645 31.9125 13.631 31.99575 13.6835 32.0853289 13.7235 32.1865921 13.7535 32.2902895 13.768 32.40275 13.7755 32.5249474 13.772 32.6442237 13.7575 32.7557105 13.731 32.8633026 13.691 32.9645658 13.639 33.0614474 13.5725 33.1515132 13.494 33.2381711 13.4015 33.3136316 13.2985 33.3861711 13.1795 33.4538421 13.0465 33.5117763 12.9025 33.5658158 12.744 33.6125526 12.57 33.6490658 12.381 33.6811974 12.178 33.6992105 12.0185 33.7099211 11.867 33.7099211 11.719 33.6992105 11.5785 33.6811974 11.449 33.6524737 11.323 33.6125526 11.2085 33.5658158 11.1015 33.5083684 11.005 33.4431316 10.9235 33.3676711 10.8495 33.2849079 10.7905 33.1914342 10.742 33.0901711 10.7125 32.9825789 10.6945 32.8633026 10.6945 32.7157895 10.7055 32.5789868 10.7315 32.4528947 10.7755 32.3336184 10.831 32.2260263 10.905 32.12525 10.9865 32.0351842 11.0785 31.9553421 11.183 31.8803684 11.2935 31.8156184 11.412 31.7571974 11.53 31.7109474 11.6555 31.6676184 11.7815 31.6320789 11.9075 31.6062763 12.0335 31.5848553 12.155"></polyline>
                        </g>
                    </g>
                </g>
            </g>
        </g>
    </g>
</svg>