<?xml version="1.0" encoding="UTF-8" standalone="no"?>
<svg width="190px" height="80px" viewBox="0 0 190 80" version="1.1" xmlns="http://www.w3.org/2000/svg" xmlns:xlink="http://www.w3.org/1999/xlink">
    <!-- Generator: Sketch 48.2 (47327) - http://www.bohemiancoding.com/sketch -->
    <title>Logo (Example)</title>
    <desc>Created with Sketch.</desc>
    <defs>
        <rect id="path-1" x="0" y="0" width="190" height="80"></rect>
        <mask id="mask-2" maskContentUnits="userSpaceOnUse" maskUnits="objectBoundingBox" x="0" y="0" width="190" height="80" fill="white">
            <use xlink:href="#path-1"></use>
        </mask>
    </defs>
    <g id="S1-Header-/-3-/-Light" stroke="none" stroke-width="1" fill="none" fill-rule="evenodd" transform="translate(-625.000000, -30.000000)">
        <g id="Logo-(Example)" transform="translate(625.000000, 30.000000)">
            <use id="Rectangle" stroke="#EB207B" mask="url(#mask-2)" stroke-width="2" stroke-dasharray="6,6" xlink:href="#path-1"></use>
            <path d="M62.2369169,38 L61.27012,35.1948242 L57.2417997,35.1948242 L56.2676786,38 L54.5831083,38 L58.3990263,27.4311523 L60.164163,27.4311523 L63.980081,38 L62.2369169,38 Z M59.1973661,29.3500977 L57.6592802,33.8178711 L60.8526396,33.8178711 L59.3218778,29.3500977 L59.1973661,29.3500977 Z M66.1714011,27.4311523 L69.987319,27.4311523 C73.1220846,27.4311523 74.9604636,29.3574219 74.9604636,32.6826172 C74.9604636,36.059082 73.1367331,38 69.987319,38 L66.1714011,38 L66.1714011,27.4311523 Z M67.8120261,28.925293 L67.8120261,36.5058594 L69.8042136,36.5058594 C72.0161276,36.5058594 73.2905417,35.1289062 73.2905417,32.7045898 C73.2905417,30.3168945 71.994155,28.925293 69.8042136,28.925293 L67.8120261,28.925293 Z M77.5253188,27.4311523 L81.3412368,27.4311523 C84.4760024,27.4311523 86.3143813,29.3574219 86.3143813,32.6826172 C86.3143813,36.059082 84.4906508,38 81.3412368,38 L77.5253188,38 L77.5253188,27.4311523 Z M79.1659438,28.925293 L79.1659438,36.5058594 L81.1581313,36.5058594 C83.3700454,36.5058594 84.6444594,35.1289062 84.6444594,32.7045898 C84.6444594,30.3168945 83.3480727,28.925293 81.1581313,28.925293 L79.1659438,28.925293 Z M97.8894043,38 L96.2487793,38 L96.2487793,33.7373047 L92.5280762,27.4311523 L94.3518066,27.4311523 L97.010498,32.0087891 L97.1350098,32.0087891 L99.7937012,27.4311523 L101.617432,27.4311523 L97.8894043,33.7373047 L97.8894043,38 Z M107.771154,27.1748047 C110.818029,27.1748047 112.693029,29.3061523 112.693029,32.7119141 C112.693029,36.1103516 110.832678,38.2563477 107.771154,38.2563477 C104.702306,38.2563477 102.834631,36.1176758 102.834631,32.7119141 C102.834631,29.2988281 104.738928,27.1748047 107.771154,27.1748047 Z M107.771154,28.7055664 C105.778967,28.7055664 104.511877,30.2583008 104.511877,32.7119141 C104.511877,35.1508789 105.742345,36.7255859 107.771154,36.7255859 C109.77799,36.7255859 111.015783,35.1508789 111.015783,32.7119141 C111.015783,30.2583008 109.77799,28.7055664 107.771154,28.7055664 Z M116.93513,27.4311523 L116.93513,34.2133789 C116.93513,35.6928711 117.894603,36.7182617 119.571849,36.7182617 C121.256419,36.7182617 122.215892,35.6928711 122.215892,34.2133789 L122.215892,27.4311523 L123.856517,27.4311523 L123.856517,34.3598633 C123.856517,36.6523438 122.223216,38.2563477 119.571849,38.2563477 C116.920482,38.2563477 115.294505,36.6523438 115.294505,34.3598633 L115.294505,27.4311523 L116.93513,27.4311523 Z M128.523423,28.8740234 L128.523423,32.5727539 L130.881822,32.5727539 C132.148911,32.5727539 132.881333,31.8989258 132.881333,30.7197266 C132.881333,29.5698242 132.104966,28.8740234 130.837876,28.8740234 L128.523423,28.8740234 Z M128.523423,33.9716797 L128.523423,38 L126.882798,38 L126.882798,27.4311523 L131.064927,27.4311523 C133.196275,27.4311523 134.565904,28.6982422 134.565904,30.6831055 C134.565904,32.1040039 133.804185,33.2612305 132.515122,33.7006836 L134.888169,38 L132.991197,38 L130.837876,33.9716797 L128.523423,33.9716797 Z M58.098044,54.4912109 L58.098044,56 L51.5062471,56 L51.5062471,45.4311523 L53.1468721,45.4311523 L53.1468721,54.4912109 L58.098044,54.4912109 Z M64.63995,45.1748047 C67.686825,45.1748047 69.561825,47.3061523 69.561825,50.7119141 C69.561825,54.1103516 67.7014734,56.2563477 64.63995,56.2563477 C61.5711023,56.2563477 59.7034266,54.1176758 59.7034266,50.7119141 C59.7034266,47.2988281 61.6077234,45.1748047 64.63995,45.1748047 Z M64.63995,46.7055664 C62.6477625,46.7055664 61.3806726,48.2583008 61.3806726,50.7119141 C61.3806726,53.1508789 62.6111414,54.7255859 64.63995,54.7255859 C66.6467859,54.7255859 67.8845789,53.1508789 67.8845789,50.7119141 C67.8845789,48.2583008 66.6467859,46.7055664 64.63995,46.7055664 Z M81.1501177,51.8178711 C81.1501177,54.5205078 79.3556841,56.2563477 76.5871295,56.2563477 C73.591524,56.2563477 71.7018756,54.125 71.7018756,50.7119141 C71.7018756,47.3427734 73.6134966,45.1748047 76.572481,45.1748047 C78.9748248,45.1748047 80.7179888,46.5371094 81.0768756,48.6757812 L79.4289263,48.6757812 C79.0187701,47.4013672 78.0153521,46.7055664 76.572481,46.7055664 C74.6169146,46.7055664 73.3791216,48.2509766 73.3791216,50.6972656 C73.3791216,53.1875 74.6242388,54.7255859 76.6091021,54.7255859 C78.3376177,54.7255859 79.5241412,53.6708984 79.5387896,52.1035156 L79.5387896,51.8764648 L76.8141802,51.8764648 L76.8141802,50.4995117 L81.1501177,50.4995117 L81.1501177,51.8178711 Z M88.2633128,45.1748047 C91.3101878,45.1748047 93.1851878,47.3061523 93.1851878,50.7119141 C93.1851878,54.1103516 91.3248363,56.2563477 88.2633128,56.2563477 C85.1944652,56.2563477 83.3267894,54.1176758 83.3267894,50.7119141 C83.3267894,47.2988281 85.2310863,45.1748047 88.2633128,45.1748047 Z M88.2633128,46.7055664 C86.2711253,46.7055664 85.0040355,48.2583008 85.0040355,50.7119141 C85.0040355,53.1508789 86.2345042,54.7255859 88.2633128,54.7255859 C90.2701488,54.7255859 91.5079417,53.1508789 91.5079417,50.7119141 C91.5079417,48.2583008 90.2701488,46.7055664 88.2633128,46.7055664 Z M108.913043,56 L107.279742,56 L107.279742,51.3637695 L101.852496,51.3637695 L101.852496,56 L100.211871,56 L100.211871,45.4311523 L101.852496,45.4311523 L101.852496,49.8696289 L107.279742,49.8696289 L107.279742,45.4311523 L108.913043,45.4311523 L108.913043,56 Z M118.626336,54.5058594 L118.626336,56 L111.917351,56 L111.917351,45.4311523 L118.626336,45.4311523 L118.626336,46.925293 L113.557976,46.925293 L113.557976,49.9135742 L118.35534,49.9135742 L118.35534,51.3344727 L113.557976,51.3344727 L113.557976,54.5058594 L118.626336,54.5058594 Z M122.985624,46.8740234 L122.985624,50.5727539 L125.344023,50.5727539 C126.611113,50.5727539 127.343535,49.8989258 127.343535,48.7197266 C127.343535,47.5698242 126.567167,46.8740234 125.300078,46.8740234 L122.985624,46.8740234 Z M122.985624,51.9716797 L122.985624,56 L121.344999,56 L121.344999,45.4311523 L125.527128,45.4311523 C127.658476,45.4311523 129.028105,46.6982422 129.028105,48.6831055 C129.028105,50.1040039 128.266386,51.2612305 126.977324,51.7006836 L129.350371,56 L127.453398,56 L125.300078,51.9716797 L122.985624,51.9716797 Z M138.426456,54.5058594 L138.426456,56 L131.717472,56 L131.717472,45.4311523 L138.426456,45.4311523 L138.426456,46.925293 L133.358097,46.925293 L133.358097,49.9135742 L138.15546,49.9135742 L138.15546,51.3344727 L133.358097,51.3344727 L133.358097,54.5058594 L138.426456,54.5058594 Z" id="ADD-YOUR-LOGO-HERE" fill="#414141"></path>
        </g>
    </g>
</svg>